<?xml version="1.0" encoding="UTF-8" standalone="no"?>
<!-- Generator: Gravit.io -->
<svg xmlns="http://www.w3.org/2000/svg" xmlns:xlink="http://www.w3.org/1999/xlink" style="isolation:isolate" viewBox="0 0 1600 420" width="1600px" height="420px"><defs><clipPath id="_clipPath_Tkys1eJbzETjqwF8otyAXMOGkiTBFUqx"><rect width="1600" height="420"/></clipPath></defs><g clip-path="url(#_clipPath_Tkys1eJbzETjqwF8otyAXMOGkiTBFUqx)"><path d=" M 646.999 -129.568 C 672.568 -140.978 703.872 -145.503 738.388 -146.206 C 721.805 -198.688 711.915 -251.248 709.681 -303.885 L 618.292 -287.247 C 621.035 -233.879 630.757 -180.478 646.999 -129.568 L 646.999 -129.568 Z " fill="rgb(242,242,242)"/><rect x="644.996" y="-304.226" width="32.312" height="14.762" transform="matrix(-0.984,0.179,-0.179,-0.984,1258.443,-707.312)" fill="rgb(63,61,86)"/><g opacity="0.1"><path d=" M 632.541 194.714 C 658.11 183.304 689.414 178.778 723.93 178.076 C 707.347 125.594 697.456 73.033 695.223 20.396 L 603.834 37.034 C 606.576 90.403 616.298 143.803 632.541 194.714 L 632.541 194.714 Z " fill="rgb(0,0,0)"/></g><path d=" M 627.093 188.106 C 652.662 176.696 683.966 172.171 718.482 171.468 C 701.899 118.986 692.008 66.426 689.775 13.789 L 598.386 30.427 C 601.128 83.795 610.851 137.196 627.093 188.106 L 627.093 188.106 Z " fill="rgb(242,242,242)"/><rect x="625.078" y="13.451" width="32.312" height="14.762" transform="matrix(-0.984,0.179,-0.179,-0.984,1275.83,-73.529)" fill="rgb(63,61,86)"/><mask id="_mask_vX5DF4zg1aZiAk6X7OEY3ILIwPttM2R6" x="-200%" y="-200%" width="400%" height="400%"><rect x="-200%" y="-200%" width="400%" height="400%" style="fill:white;"/><path d=" M 501.698 -54.984 C 501.698 -54.984 511.728 -201.039 590.473 -216.65" fill="black" stroke="none"/></mask><path d=" M 501.698 -54.984 C 501.698 -54.984 511.728 -201.039 590.473 -216.65" fill="none" mask="url(#_mask_vX5DF4zg1aZiAk6X7OEY3ILIwPttM2R6)" vector-effect="non-scaling-stroke" stroke-width="2.15" stroke="rgb(63,61,86)" stroke-linejoin="miter" stroke-linecap="butt" stroke-miterlimit="10"/><path d=" M 501.698 -54.984 C 501.698 -54.984 511.728 -201.039 590.473 -216.65" fill="none"/><path d=" M 597.605 -217.678 C 594.539 -215.431 590.868 -211.884 588.802 -208.375 L 589.547 -216.473 L 586.23 -223.967 C 589.324 -221.229 593.97 -218.891 597.605 -217.678 Z " fill="rgb(63,61,86)"/><mask id="_mask_CC3IAhkJHsBvwaj5EWKfLzqaPw76FmrG" x="-200%" y="-200%" width="400%" height="400%"><rect x="-200%" y="-200%" width="400%" height="400%" style="fill:white;"/><path d=" M 514.305 -2.395 C 514.305 -2.395 531.55 110.517 580.422 117.418" fill="black" stroke="none"/></mask><path d=" M 514.305 -2.395 C 514.305 -2.395 531.55 110.517 580.422 117.418" fill="none" mask="url(#_mask_CC3IAhkJHsBvwaj5EWKfLzqaPw76FmrG)" vector-effect="non-scaling-stroke" stroke-width="2.15" stroke="rgb(63,61,86)" stroke-linejoin="miter" stroke-linecap="butt" stroke-miterlimit="10"/><path d=" M 514.305 -2.395 C 514.305 -2.395 531.55 110.517 580.422 117.418" fill="none"/><path d=" M 587.706 117.654 C 584.386 119.238 580.325 122.012 577.885 125.031 L 579.465 117.288 L 576.894 109.363 C 579.729 112.613 584.166 115.765 587.706 117.654 Z " fill="rgb(63,61,86)"/><mask id="_mask_SbKY8xEct0cARizi38VKyMdUCW3CSrU2" x="-200%" y="-200%" width="400%" height="400%"><rect x="-200%" y="-200%" width="400%" height="400%" style="fill:white;"/><path d=" M 517 -40.883 C 517 -40.883 755.702 -144.106 811.502 -80.331" fill="black" stroke="none"/></mask><path d=" M 517 -40.883 C 517 -40.883 755.702 -144.106 811.502 -80.331" fill="none" mask="url(#_mask_SbKY8xEct0cARizi38VKyMdUCW3CSrU2)" vector-effect="non-scaling-stroke" stroke-width="2.15" stroke="rgb(63,61,86)" stroke-linejoin="miter" stroke-linecap="butt" stroke-miterlimit="10"/><path d=" M 517 -40.883 C 517 -40.883 755.702 -144.106 811.502 -80.331" fill="none"/><path d=" M 816.843 -72.674 C 813.436 -75.068 808.813 -77.511 805.309 -78.173 L 810.717 -81.176 L 813.029 -88.462 C 813.458 -83.676 815.156 -77.349 816.843 -72.674 Z " fill="rgb(63,61,86)"/><g style="opacity:0.1;"><g opacity="0.1"><path d=" M 528.414 223.617 C 525.704 208.731 653.561 172.968 813.754 143.803 C 973.947 114.638 1106.204 103.045 1108.914 117.931 C 1111.624 132.816 983.768 168.579 823.574 197.744 C 663.381 226.909 531.124 238.502 528.414 223.617 Z " fill="rgb(108,99,255)"/></g></g><rect x="446.393" y="-117.051" width="32.312" height="14.762" transform="matrix(0.984,-0.179,0.179,0.984,27.124,81.076)" fill="rgb(63,61,86)"/><rect x="621.487" y="63.729" width="57.274" height="10.799" transform="matrix(0.984,-0.179,0.179,0.984,-1.868,117.566)" fill="rgb(108,99,255)"/><rect x="625.505" y="85.796" width="57.274" height="10.799" transform="matrix(0.984,-0.179,0.179,0.984,-5.756,118.642)" fill="rgb(108,99,255)"/><path d=" M 835.429 181.91 C 857.364 164.508 886.563 152.351 919.824 143.1 C 890.729 96.379 868.096 47.921 852.862 -2.513 L 768.467 36.297 C 784.376 87.313 807.053 136.627 835.429 181.91 L 835.429 181.91 Z " fill="rgb(242,242,242)"/><rect x="791.435" y="8.982" width="32.312" height="14.762" transform="matrix(-0.909,0.418,-0.418,-0.909,1548.154,-306.185)" fill="rgb(63,61,86)"/><rect x="799.558" y="55.54" width="57.274" height="10.799" transform="matrix(0.909,-0.418,0.418,0.909,50.288,351.596)" fill="rgb(108,99,255)"/><rect x="808.929" y="75.918" width="57.274" height="10.799" transform="matrix(0.909,-0.418,0.418,0.909,42.631,357.375)" fill="rgb(108,99,255)"/><rect x="638.587" y="-268.692" width="57.274" height="10.799" transform="matrix(0.984,-0.179,0.179,0.984,57.95,115.253)" fill="rgb(108,99,255)"/><rect x="642.605" y="-246.625" width="57.274" height="10.799" transform="matrix(0.984,-0.179,0.179,0.984,54.063,116.329)" fill="rgb(108,99,255)"/><rect x="440.277" y="-78.911" width="57.274" height="10.799" transform="matrix(0.984,-0.179,0.179,0.984,20.75,82.801)" fill="rgb(108,99,255)"/><path d=" M 510.952 332.058 L 520.512 320.818 C 518.335 317.481 515.804 314.6 513.024 312.294 L 493.5 325.33 L 507.634 308.707 C 498.107 303.849 487.988 305.938 481.014 314.202 C 474.04 322.467 471.247 335.68 473.667 348.962 C 477.448 369.729 489.664 368.248 504.578 365.532 C 519.493 362.817 531.448 359.898 527.667 339.13 C 526.715 333.875 524.979 328.823 522.572 324.302 L 510.952 332.058 Z " fill="rgb(108,99,255)"/><g opacity="0.1"><path d=" M 517.486 351.724 C 515.986 350.272 514.383 349.053 512.713 348.093 C 510.327 346.577 507.87 345.04 505.346 344.832 C 503.132 344.661 501.04 345.532 498.843 345.754 C 495.049 346.113 491.124 344.51 487.831 341.257 C 485.895 339.321 484.197 336.853 482.043 335.48 C 479.721 334.02 477.126 334.087 474.85 334.974 C 474.19 335.235 473.547 335.552 472.924 335.924 C 472.609 340.206 472.854 344.619 473.649 348.965 C 477.43 369.732 489.646 368.251 504.561 365.536 C 511.798 364.218 518.335 362.851 522.719 359.418 L 521.55 357.495 C 520.363 355.37 518.997 353.431 517.486 351.724 Z " fill="rgb(0,0,0)"/></g><g><g style="opacity:0.5;"><g opacity="0.5"><linearGradient id="_lgradient_44" x1="0.5000000000000001" y1="1" x2="0.5000000000000002" y2="0" gradientTransform="matrix(255.463,0,0,167.681,268.928,87.905)" gradientUnits="userSpaceOnUse"><stop offset="0%" stop-opacity="0.25" style="stop-color:rgb(128,128,128)"/><stop offset="54%" stop-opacity="0.12" style="stop-color:rgb(128,128,128)"/><stop offset="100%" stop-opacity="0.1" style="stop-color:rgb(128,128,128)"/></linearGradient><rect x="268.928" y="87.905" width="255.463" height="167.681" transform="matrix(1,0,0,1,0,0)" fill="url(#_lgradient_44)"/></g></g><rect x="271.568" y="90.408" width="250.84" height="163.299" transform="matrix(1,0,0,1,0,0)" fill="rgb(247,247,247)"/><g style="opacity:0.5;"><g opacity="0.5"><ellipse vector-effect="non-scaling-stroke" cx="312.33019004329657" cy="145.78068069069053" rx="4.62310454250985" ry="4.381865553622788" fill="rgb(108,99,255)"/></g><g opacity="0.5"><ellipse vector-effect="non-scaling-stroke" cx="312.33019004329657" cy="172.06034278728634" rx="4.62310454250985" ry="4.381865553622788" fill="rgb(108,99,255)"/></g><g opacity="0.5"><ellipse vector-effect="non-scaling-stroke" cx="312.33019004329657" cy="198.33423927131145" rx="4.62310454250985" ry="4.381865553622788" fill="rgb(108,99,255)"/></g></g><rect x="346.328" y="143.278" width="139.946" height="5.005" transform="matrix(1,0,0,1,0,0)" fill="rgb(224,224,224)"/><rect x="346.328" y="169.552" width="139.946" height="5.005" transform="matrix(1,0,0,1,0,0)" fill="rgb(224,224,224)"/><rect x="346.328" y="195.832" width="139.946" height="5.005" transform="matrix(1,0,0,1,0,0)" fill="rgb(224,224,224)"/><g style="opacity:0.5;"><g opacity="0.5"><linearGradient id="_lgradient_45" x1="0" y1="0.5" x2="6.123233995736766e-17" y2="-0.5" gradientTransform="matrix(255.463,0,0,167.681,358.044,156.101)" gradientUnits="userSpaceOnUse"><stop offset="0%" stop-opacity="0.1" style="stop-color:rgb(128,128,128)"/></linearGradient><rect x="358.044" y="156.101" width="255.463" height="167.681" transform="matrix(1,0,0,1,0,0)" fill="url(#_lgradient_45)"/></g></g><rect x="360.684" y="158.603" width="250.84" height="163.299" transform="matrix(1,0,0,1,0,0)" fill="rgb(247,247,247)"/><g style="opacity:0.5;"><g opacity="0.5"><ellipse vector-effect="non-scaling-stroke" cx="401.44661313246706" cy="213.97634617523073" rx="4.62310454250985" ry="4.381865553622788" fill="rgb(108,99,255)"/></g><g opacity="0.5"><ellipse vector-effect="non-scaling-stroke" cx="401.44661313246706" cy="240.2560082718264" rx="4.62310454250985" ry="4.381865553622788" fill="rgb(108,99,255)"/></g><g opacity="0.5"><ellipse vector-effect="non-scaling-stroke" cx="401.44661313246706" cy="266.5356703684222" rx="4.62310454250985" ry="4.381865553622788" fill="rgb(108,99,255)"/></g></g><rect x="435.439" y="211.474" width="139.946" height="5.005" transform="matrix(1,0,0,1,0,0)" fill="rgb(224,224,224)"/><rect x="435.439" y="237.754" width="139.946" height="5.005" transform="matrix(1,0,0,1,0,0)" fill="rgb(224,224,224)"/><rect x="435.439" y="264.028" width="139.946" height="5.005" transform="matrix(1,0,0,1,0,0)" fill="rgb(224,224,224)"/><g style="opacity:0.5;"><g opacity="0.5"><linearGradient id="_lgradient_46" x1="0" y1="0.5" x2="6.123233995736766e-17" y2="-0.5" gradientTransform="matrix(255.463,0,0,167.681,447.161,224.303)" gradientUnits="userSpaceOnUse"><stop offset="0%" stop-opacity="0.1" style="stop-color:rgb(128,128,128)"/></linearGradient><rect x="447.161" y="224.303" width="255.463" height="167.681" transform="matrix(1,0,0,1,0,0)" fill="url(#_lgradient_46)"/></g></g><rect x="449.801" y="226.805" width="250.84" height="163.299" transform="matrix(1,0,0,1,0,0)" fill="rgb(238,238,238)"/><ellipse vector-effect="non-scaling-stroke" cx="490.5630362216371" cy="282.1720116597709" rx="4.62310454250985" ry="4.381865553622788" fill="rgb(108,99,255)"/><ellipse vector-effect="non-scaling-stroke" cx="490.5630362216371" cy="308.45167375636646" rx="4.62310454250985" ry="4.381865553622788" fill="rgb(108,99,255)"/><ellipse vector-effect="non-scaling-stroke" cx="490.5630362216371" cy="334.7313358529625" rx="4.62310454250985" ry="4.381865553622788" fill="rgb(108,99,255)"/><rect x="524.555" y="279.67" width="139.946" height="5.005" transform="matrix(1,0,0,1,0,0)" fill="rgb(223,223,223)"/><rect x="524.555" y="305.949" width="139.946" height="5.005" transform="matrix(1,0,0,1,0,0)" fill="rgb(223,223,223)"/><rect x="524.555" y="332.229" width="139.946" height="5.005" transform="matrix(1,0,0,1,0,0)" fill="rgb(223,223,223)"/><g style="opacity:0.5;"><g opacity="0.5"><linearGradient id="_lgradient_47" x1="0" y1="0.5" x2="6.123233995736766e-17" y2="-0.5" gradientTransform="matrix(174.243,0,0,234.719,648.685,142.96)" gradientUnits="userSpaceOnUse"><stop offset="0%" stop-opacity="0.1" style="stop-color:rgb(128,128,128)"/></linearGradient><path d=" M 817.684 222.071 C 815.859 221.962 813.98 220.768 813.797 219.05 C 813.578 216.998 815.622 215.493 816.918 213.815 C 819.181 210.828 818.907 206.533 816.863 203.437 C 814.819 200.341 811.279 198.248 807.562 197.21 C 804.478 196.339 800.871 195.855 799.046 193.307 C 796.162 189.167 800.621 183.972 801.005 179.025 C 801.369 174.315 797.257 169.696 792.294 169.224 C 789.422 168.964 786.052 169.8 783.972 167.898 C 783.401 167.34 782.965 166.671 782.695 165.937 C 781.356 162.645 781.983 158.978 782.153 155.455 C 782.324 151.933 781.813 147.96 778.947 145.717 C 777.293 144.408 775.103 143.895 772.98 143.567 C 766.538 142.569 759.938 142.909 753.478 143.809 C 744.481 145.06 735.101 147.712 729.146 154.222 C 723.19 160.731 722.412 172.032 729.602 177.284 C 728.994 176.823 729.261 175.802 730.131 174.58 C 730.131 174.695 730.131 174.805 730.131 174.92 C 730.124 182.186 734.909 188.682 742.109 191.179 L 742.109 192.396 C 740.8 192.698 739.551 193.198 738.41 193.877 C 726.159 196.743 701.656 211.053 701.656 211.053 L 665.675 216.819 C 665.675 216.819 648.034 219.39 648.704 221.967 C 648.704 221.967 665.675 222.613 665.675 222.613 L 702.058 222.613 C 705.359 222.609 708.607 221.816 711.499 220.307 L 731.39 209.929 C 731.293 211.428 731.244 212.973 731.232 214.541 C 728.087 216.675 725.009 221.333 731.475 230.927 L 731.524 230.662 C 731.524 230.749 731.524 230.841 731.524 230.927 L 724.291 262.534 C 722.089 264.08 720.581 265.504 721.104 266.265 C 721.408 266.703 722.223 266.784 723.336 266.639 L 713.324 310.458 L 741.379 342.573 L 746.063 367.999 L 741.652 372.006 L 725.289 374.889 C 724.533 375.02 724.008 375.677 724.079 376.403 C 724.15 377.128 724.794 377.682 725.563 377.679 L 761.416 377.679 L 761.416 371.274 L 761.745 371.274 L 761.136 363.582 L 772.469 356.56 L 768.752 351.175 L 768.223 351.504 L 759.171 339.517 L 757.62 320.629 L 774.166 263.814 L 774.166 263.814 L 774.166 263.751 L 774.166 263.751 L 770.103 247.901 L 777.226 244.476 C 781.864 242.243 784.061 237.115 782.378 232.449 C 781.289 229.457 779.945 225.928 778.376 222.342 C 780.728 224.567 783.448 226.411 786.43 227.802 C 798.218 233.055 812.355 228.05 822.928 220.843 C 821.255 221.495 819.503 222.187 817.684 222.071 Z  M 766.903 235.407 L 764.379 225.571 L 767.809 233.885 C 767.353 234.64 767.013 235.205 766.897 235.413 L 766.903 235.407 Z  M 752.815 192.488 L 752.815 191.75 C 755.161 191.207 757.369 190.227 759.311 188.867 C 759.144 191.458 759.408 194.057 760.096 196.57 C 758.496 194.604 756.185 193.243 752.809 192.499 L 752.815 192.488 Z  M 733.763 305.828 L 748.265 266.086 L 739.371 313.266 L 733.763 305.828 Z " fill="url(#_lgradient_47)"/></g></g><path d=" M 767.828 348.667 L 755.12 356.543 L 740.472 369.855 C 739.975 370.31 739.888 371.036 740.265 371.585 L 740.265 371.585 C 740.474 371.889 740.802 372.101 741.176 372.176 C 741.55 372.25 741.94 372.181 742.261 371.983 L 771.459 353.902 L 767.828 348.667 Z " fill="rgb(51,51,51)"/><path d=" M 741.567 206.158 L 712.192 221.443 C 709.379 222.907 706.222 223.674 703.013 223.674 L 667.634 223.674 L 667.634 218.035 L 702.618 212.402 C 702.618 212.402 742.23 189.265 744.846 196.772 C 744.846 196.772 741.567 206.158 741.567 206.158 Z " fill="rgb(108,99,255)"/><path d=" M 773.12 263.722 L 724.364 263.722 L 731.664 231.815 C 731.664 214.449 728.014 193.826 746.342 193.826 L 746.342 193.826 C 764.664 193.826 762.687 205.691 762.687 223.051 L 773.12 263.722 Z " fill="rgb(108,99,255)"/><path d=" M 741.95 181.7 L 752.34 181.7 L 752.34 195.348 C 752.34 196.551 751.836 197.705 750.938 198.556 C 750.04 199.407 748.823 199.885 747.553 199.885 L 746.738 199.885 C 745.468 199.885 744.25 199.407 743.353 198.556 C 742.455 197.705 741.95 196.551 741.95 195.348 L 741.95 181.7 Z " fill="rgb(253,165,125)"/><path d=" M 724.364 263.653 L 713.975 309.109 L 756.337 357.598 L 767.523 349.266 L 733.817 304.566 L 748.745 263.653 L 724.364 263.653 L 724.364 263.653 Z " fill="rgb(224,224,224)"/><g opacity="0.04"><path d=" M 724.364 263.653 L 713.975 309.109 L 756.337 357.598 L 767.523 349.266 L 733.817 304.566 L 748.745 263.653 L 724.364 263.653 L 724.364 263.653 Z " fill="rgb(0,0,0)"/></g><path d=" M 748.344 263.653 L 737.607 320.652 L 746.361 368.201 L 761.027 368.201 L 757.03 318.962 L 773.12 263.653 L 748.344 263.653 L 748.344 263.653 Z " fill="rgb(224,224,224)"/><g opacity="0.05"><path d=" M 765.991 236.191 L 733.647 258.101 L 736.287 262.482 L 774.099 244.303 C 778.622 242.132 780.761 237.131 779.112 232.588 C 774.604 220.192 765.991 236.191 765.991 236.191 Z " fill="rgb(0,0,0)"/></g><g opacity="0.05"><path d=" M 757.292 210.955 L 767.961 236.814 L 734.967 254.935 L 738.27 263.071 L 776.082 244.892 C 780.605 242.72 782.744 237.72 781.095 233.176 C 776.587 220.797 767.274 198.922 759.372 204.065 C 757.074 205.625 756.212 208.479 757.292 210.955 Z " fill="rgb(0,0,0)"/></g><path d=" M 756.635 209.704 L 767.311 235.569 L 734.967 256.215 L 736.938 261.854 L 775.407 243.675 C 779.93 241.504 782.069 236.503 780.42 231.959 C 775.912 219.581 766.599 197.706 758.697 202.849 C 756.423 204.409 755.571 207.242 756.635 209.704 Z " fill="rgb(108,99,255)"/><path d=" M 760.711 368.206 L 745.503 368.206 L 725.557 371.752 C 724.875 371.874 724.382 372.439 724.383 373.096 L 724.383 373.096 C 724.383 373.458 724.535 373.806 724.805 374.062 C 725.075 374.318 725.442 374.462 725.824 374.462 L 760.686 374.462 L 760.711 368.206 Z " fill="rgb(51,51,51)"/><g opacity="0.05"><path d=" M 758.07 211.163 C 758.07 211.163 765.978 221.172 764.671 228.679" fill="rgb(0,0,0)"/></g><g opacity="0.05"><path d=" M 741.95 194.396 C 745.281 195.549 748.898 195.734 752.34 194.927 L 752.34 182.952 L 741.95 182.952 L 741.95 194.396 Z " fill="rgb(0,0,0)"/></g><ellipse vector-effect="non-scaling-stroke" cx="748.0638762071435" cy="177.31858145163403" rx="17.76245429490632" ry="16.835588706024453" fill="rgb(253,165,125)"/><path d=" M 667.634 218.035 C 667.634 218.035 650.474 220.538 651.131 223.04 C 651.131 223.04 667.634 223.668 667.634 223.668 L 667.634 218.035 Z " fill="rgb(253,165,125)"/><path d=" M 735.405 256.331 C 735.405 256.331 720.045 264.01 721.536 266.172 C 721.536 266.172 737.352 261.652 737.352 261.652 L 735.405 256.331 Z " fill="rgb(253,165,125)"/><path d=" M 734.967 214.293 C 734.967 214.293 721.664 217.049 731.615 231.809" fill="rgb(108,99,255)"/><g opacity="0.05"><path d=" M 750.807 215.545 C 750.807 215.545 737.504 218.301 747.456 233.061" fill="rgb(0,0,0)"/></g><path d=" M 751.47 215.545 C 751.47 215.545 738.167 218.301 748.119 233.061" fill="rgb(108,99,255)"/><path d=" M 761.27 182.721 C 757.76 188.112 757.973 195.111 760.297 201.05 C 762.621 206.988 766.824 212.074 771.082 216.957 C 775.073 221.535 779.349 226.153 785.018 228.679 C 796.485 233.787 810.226 228.921 820.513 221.916 C 818.883 222.573 817.173 223.247 815.409 223.138 C 813.645 223.028 811.808 221.869 811.625 220.203 C 811.413 218.208 813.45 216.744 814.667 215.112 C 816.869 212.229 816.601 208.032 814.618 204.994 C 812.635 201.955 809.192 199.966 805.573 198.94 C 802.574 198.092 799.046 197.619 797.318 195.146 C 794.52 191.11 798.851 186.071 799.222 181.262 C 799.581 176.684 795.572 172.193 790.755 171.755 C 787.962 171.501 784.672 172.331 782.664 170.463 C 782.118 169.918 781.702 169.267 781.448 168.555 C 780.146 165.355 780.754 161.786 780.918 158.361 C 781.083 154.936 780.584 151.085 777.804 148.894 C 776.192 147.626 774.069 147.124 772.001 146.807 C 765.735 145.838 759.317 146.167 753.04 147.043 C 744.286 148.26 735.174 150.837 729.377 157.168 C 723.58 163.498 722.825 174.465 729.821 179.619 C 727.345 177.803 739.414 167.108 745.083 170.394 C 751.537 174.107 751.671 183.078 761.27 182.721 Z " fill="rgb(51,51,51)"/></g><linearGradient id="_lgradient_48" x1="0.49999999999999994" y1="0.9999999999999999" x2="0.5" y2="0" gradientTransform="matrix(450.928,0,0,248.451,32.754,40)" gradientUnits="userSpaceOnUse"><stop offset="0%" stop-opacity="0.25" style="stop-color:rgb(128,128,128)"/><stop offset="54%" stop-opacity="0.12" style="stop-color:rgb(128,128,128)"/><stop offset="100%" stop-opacity="0.1" style="stop-color:rgb(128,128,128)"/></linearGradient><rect x="32.754" y="40" width="450.928" height="248.451" transform="matrix(1,0,0,1,0,0)" fill="url(#_lgradient_48)"/><rect x="36.7" y="69.354" width="441.91" height="211.582" transform="matrix(1,0,0,1,0,0)" fill="rgb(255,255,255)"/><rect x="36.7" y="45.166" width="441.91" height="24.188" transform="matrix(1,0,0,1,0,0)" fill="rgb(108,99,255)"/><linearGradient id="_lgradient_49" x1="0" y1="0.5" x2="6.123233995736766e-17" y2="-0.5" gradientTransform="matrix(430.636,0,0,184.577,42.9,84.618)" gradientUnits="userSpaceOnUse"><stop offset="0%" stop-opacity="0.1" style="stop-color:rgb(128,128,128)"/></linearGradient><rect x="42.9" y="84.618" width="430.636" height="184.577" transform="matrix(1,0,0,1,0,0)" fill="url(#_lgradient_49)"/><g opacity="0.5"><rect x="48.255" y="87.905" width="51.857" height="34.52" transform="matrix(1,0,0,1,0,0)" fill="rgb(108,99,255)"/></g><rect x="100.675" y="87.905" width="51.857" height="34.52" transform="matrix(1,0,0,1,0,0)" fill="rgb(255,255,255)"/><g opacity="0.2"><rect x="153.096" y="87.905" width="51.857" height="34.52" transform="matrix(1,0,0,1,0,0)" fill="rgb(108,99,255)"/></g><rect x="205.516" y="87.905" width="51.857" height="34.52" transform="matrix(1,0,0,1,0,0)" fill="rgb(255,255,255)"/><rect x="257.936" y="87.905" width="51.857" height="34.52" transform="matrix(1,0,0,1,0,0)" fill="rgb(255,255,255)"/><g opacity="0.5"><rect x="310.357" y="87.905" width="51.857" height="34.52" transform="matrix(1,0,0,1,0,0)" fill="rgb(108,99,255)"/></g><rect x="362.777" y="87.905" width="51.857" height="34.52" transform="matrix(1,0,0,1,0,0)" fill="rgb(255,255,255)"/><g opacity="0.2"><rect x="415.198" y="87.905" width="51.857" height="34.52" transform="matrix(1,0,0,1,0,0)" fill="rgb(108,99,255)"/></g><g opacity="0.2"><rect x="48.255" y="123.13" width="51.857" height="34.52" transform="matrix(1,0,0,1,0,0)" fill="rgb(108,99,255)"/></g><g opacity="0.2"><rect x="100.675" y="123.13" width="51.857" height="34.52" transform="matrix(1,0,0,1,0,0)" fill="rgb(108,99,255)"/></g><rect x="153.096" y="123.13" width="51.857" height="34.52" transform="matrix(1,0,0,1,0,0)" fill="rgb(255,255,255)"/><g opacity="0.5"><rect x="205.516" y="123.13" width="51.857" height="34.52" transform="matrix(1,0,0,1,0,0)" fill="rgb(108,99,255)"/></g><rect x="257.936" y="123.13" width="51.857" height="34.52" transform="matrix(1,0,0,1,0,0)" fill="rgb(255,255,255)"/><g opacity="0.2"><rect x="310.357" y="123.13" width="51.857" height="34.52" transform="matrix(1,0,0,1,0,0)" fill="rgb(108,99,255)"/></g><g opacity="0.5"><rect x="362.777" y="123.13" width="51.857" height="34.52" transform="matrix(1,0,0,1,0,0)" fill="rgb(108,99,255)"/></g><rect x="415.198" y="123.13" width="51.857" height="34.52" transform="matrix(1,0,0,1,0,0)" fill="rgb(255,255,255)"/><rect x="48.255" y="157.885" width="51.857" height="34.52" transform="matrix(1,0,0,1,0,0)" fill="rgb(255,255,255)"/><rect x="100.675" y="157.885" width="51.857" height="34.52" transform="matrix(1,0,0,1,0,0)" fill="rgb(255,255,255)"/><g opacity="0.2"><rect x="153.096" y="157.885" width="51.857" height="34.52" transform="matrix(1,0,0,1,0,0)" fill="rgb(108,99,255)"/></g><rect x="205.516" y="157.885" width="51.857" height="34.52" transform="matrix(1,0,0,1,0,0)" fill="rgb(255,255,255)"/><g opacity="0.2"><rect x="257.936" y="157.885" width="51.857" height="34.52" transform="matrix(1,0,0,1,0,0)" fill="rgb(108,99,255)"/></g><rect x="310.357" y="157.885" width="51.857" height="34.52" transform="matrix(1,0,0,1,0,0)" fill="rgb(255,255,255)"/><rect x="362.777" y="157.885" width="51.857" height="34.52" transform="matrix(1,0,0,1,0,0)" fill="rgb(255,255,255)"/><g opacity="0.2"><rect x="415.198" y="157.885" width="51.857" height="34.52" transform="matrix(1,0,0,1,0,0)" fill="rgb(108,99,255)"/></g><rect x="48.255" y="192.64" width="51.857" height="34.52" transform="matrix(1,0,0,1,0,0)" fill="rgb(255,255,255)"/><g opacity="0.5"><rect x="100.675" y="192.64" width="51.857" height="34.52" transform="matrix(1,0,0,1,0,0)" fill="rgb(108,99,255)"/></g><g opacity="0.5"><rect x="153.096" y="192.64" width="51.857" height="34.52" transform="matrix(1,0,0,1,0,0)" fill="rgb(108,99,255)"/></g><rect x="205.516" y="192.64" width="51.857" height="34.52" transform="matrix(1,0,0,1,0,0)" fill="rgb(255,255,255)"/><rect x="257.936" y="192.64" width="51.857" height="34.52" transform="matrix(1,0,0,1,0,0)" fill="rgb(255,255,255)"/><g opacity="0.5"><rect x="310.357" y="192.64" width="51.857" height="34.52" transform="matrix(1,0,0,1,0,0)" fill="rgb(108,99,255)"/></g><rect x="362.777" y="192.64" width="51.857" height="34.52" transform="matrix(1,0,0,1,0,0)" fill="rgb(255,255,255)"/><g opacity="0.5"><rect x="415.198" y="192.64" width="51.857" height="34.52" transform="matrix(1,0,0,1,0,0)" fill="rgb(108,99,255)"/></g><g opacity="0.5"><rect x="48.255" y="227.865" width="51.857" height="34.52" transform="matrix(1,0,0,1,0,0)" fill="rgb(108,99,255)"/></g><g opacity="0.2"><rect x="100.675" y="227.865" width="51.857" height="34.52" transform="matrix(1,0,0,1,0,0)" fill="rgb(108,99,255)"/></g><rect x="153.096" y="227.865" width="51.857" height="34.52" transform="matrix(1,0,0,1,0,0)" fill="rgb(255,255,255)"/><g opacity="0.5"><rect x="205.516" y="227.865" width="51.857" height="34.52" transform="matrix(1,0,0,1,0,0)" fill="rgb(108,99,255)"/></g><g opacity="0.2"><rect x="257.936" y="227.865" width="51.857" height="34.52" transform="matrix(1,0,0,1,0,0)" fill="rgb(108,99,255)"/></g><rect x="310.357" y="227.865" width="51.857" height="34.52" transform="matrix(1,0,0,1,0,0)" fill="rgb(255,255,255)"/><g opacity="0.2"><rect x="362.777" y="227.865" width="51.857" height="34.52" transform="matrix(1,0,0,1,0,0)" fill="rgb(108,99,255)"/></g><rect x="415.198" y="227.865" width="51.857" height="34.52" transform="matrix(1,0,0,1,0,0)" fill="rgb(255,255,255)"/><rect x="52.482" y="161.173" width="15.782" height="13.151" transform="matrix(1,0,0,1,0,0)" fill="rgb(105,240,174)"/><rect x="209.18" y="91.663" width="15.782" height="13.151" transform="matrix(1,0,0,1,0,0)" fill="rgb(105,240,174)"/><rect x="207.489" y="161.173" width="15.782" height="13.151" transform="matrix(1,0,0,1,0,0)" fill="rgb(105,240,174)"/><rect x="261.037" y="194.519" width="15.782" height="13.151" transform="matrix(1,0,0,1,0,0)" fill="rgb(105,240,174)"/><rect x="365.314" y="161.173" width="15.782" height="13.151" transform="matrix(1,0,0,1,0,0)" fill="rgb(105,240,174)"/><linearGradient id="_lgradient_50" x1="0" y1="0.5" x2="6.123233995736766e-17" y2="-0.5" gradientTransform="matrix(193.392,0,0,161.141,12.682,188.859)" gradientUnits="userSpaceOnUse"><stop offset="0%" stop-opacity="0.1" style="stop-color:rgb(128,128,128)"/></linearGradient><ellipse vector-effect="non-scaling-stroke" cx="109.37813220282153" cy="269.4295886675251" rx="96.69588683716083" ry="80.5704113324748" fill="url(#_lgradient_50)"/><ellipse vector-effect="non-scaling-stroke" cx="109.37813220282162" cy="269.42958866752497" rx="94.08614066370677" ry="78.39587910006816" fill="rgb(108,99,255)"/><ellipse vector-effect="non-scaling-stroke" cx="109.37813220282158" cy="269.42958866752497" rx="76.44358013906012" ry="63.69547761533215" fill="rgb(255,255,255)"/><linearGradient id="_lgradient_51" x1="0" y1="0.5" x2="6.123233995736766e-17" y2="-0.5" gradientTransform="matrix(9.143,0,0,7.618,104.807,265.621)" gradientUnits="userSpaceOnUse"><stop offset="0%" stop-opacity="0.1" style="stop-color:rgb(128,128,128)"/></linearGradient><ellipse vector-effect="non-scaling-stroke" cx="109.37813220282163" cy="269.4295886675251" rx="4.571283254149662" ry="3.8089538671312653" fill="url(#_lgradient_51)"/><line x1="134.861" y1="220.435" x2="110.032" y2="269.43"/><linearGradient id="_lgradient_52" x1="0" y1="0.5" x2="6.123233995736766e-17" y2="1.5" gradientTransform="matrix(28.183,0,0,50.254,108.285,219.645)" gradientUnits="userSpaceOnUse"><stop offset="0%" stop-opacity="0.1" style="stop-color:rgb(128,128,128)"/></linearGradient><path d=" M 111.103 269.899 L 108.285 269.11 L 133.649 219.645 L 136.468 220.749 L 111.103 269.899 L 111.103 269.899 Z " fill="url(#_lgradient_52)"/><rect x="94.977" y="243.966" width="54.927" height="1.899" transform="matrix(0.452,-0.892,0.951,0.335,-165.927,272.157)" fill="rgb(33,150,243)"/><line x1="110.032" y1="269.974" x2="126.367" y2="295.017"/><linearGradient id="_lgradient_53" x1="0" y1="0.5" x2="6.123233995736766e-17" y2="1.5" gradientTransform="matrix(19.164,0,0,26.301,108.848,269.43)" gradientUnits="userSpaceOnUse"><stop offset="0%" stop-opacity="0.1" style="stop-color:rgb(128,128,128)"/></linearGradient><path d=" M 125.194 295.731 L 108.848 270.369 L 111.103 269.43 L 128.013 294.322 L 125.194 295.731 L 125.194 295.731 Z " fill="url(#_lgradient_53)"/><rect x="117.244" y="267.736" width="1.892" height="29.552" transform="matrix(0.911,-0.412,0.553,0.847,-145.621,91.839)" fill="rgb(33,150,243)"/><ellipse vector-effect="non-scaling-stroke" cx="180.59658339416671" cy="271.06401030224964" rx="1.9615370806955355" ry="1.6344216347246174" fill="rgb(108,99,255)"/><linearGradient id="_lgradient_54" x1="0" y1="0.5" x2="0.8660254037844384" y2="1.0000000000000004" gradientTransform="matrix(2.548,-3.677,4.413,2.123,44.553,240.861)" gradientUnits="userSpaceOnUse"><stop offset="100%" stop-opacity="0.25" style="stop-color:rgb(128,128,128)"/><stop offset="100%" stop-opacity="0.21921556335070289" style="stop-color:rgb(128,128,128)"/><stop offset="100%" stop-opacity="0.11744252372451994" style="stop-color:rgb(128,128,128)"/></linearGradient><path d=" M 46.759 241.922 C 45.541 241.336 45.123 240.037 45.826 239.022 C 46.53 238.007 48.089 237.659 49.307 238.245 C 50.524 238.831 50.942 240.13 50.239 241.145 C 49.536 242.16 47.977 242.508 46.759 241.922 Z " fill="url(#_lgradient_54)"/><linearGradient id="_lgradient_55" x1="0" y1="0.5" x2="0.5000000000000007" y2="-0.36602540378443826" gradientTransform="matrix(4.413,-2.123,2.548,3.677,45.205,299.734)" gradientUnits="userSpaceOnUse"><stop offset="0%" stop-opacity="0.1" style="stop-color:rgb(128,128,128)"/></linearGradient><path d=" M 46.478 301.572 C 45.775 300.557 46.193 299.258 47.411 298.672 C 48.629 298.086 50.188 298.435 50.891 299.449 C 51.594 300.464 51.176 301.763 49.959 302.349 C 48.741 302.935 47.181 302.587 46.478 301.572 Z " fill="url(#_lgradient_55)"/><linearGradient id="_lgradient_56" x1="0" y1="0.5" x2="0.4999999999999984" y2="-0.3660254037844396" gradientTransform="matrix(5.095,0,0,4.246,35.618,268.941)" gradientUnits="userSpaceOnUse"><stop offset="0%" stop-opacity="0.1" style="stop-color:rgb(128,128,128)"/></linearGradient><ellipse vector-effect="non-scaling-stroke" cx="38.16531761228282" cy="271.0640103022499" rx="2.547743564581566" ry="2.1228694795848924" fill="url(#_lgradient_56)"/><linearGradient id="_lgradient_57" x1="0" y1="0.5" x2="0.866025403784442" y2="0.9999999999999942" gradientTransform="matrix(4.413,-2.123,2.548,3.677,70.552,217.531)" gradientUnits="userSpaceOnUse"><stop offset="100%" stop-opacity="0.25" style="stop-color:rgb(128,128,128)"/><stop offset="100%" stop-opacity="0.21924961693106682" style="stop-color:rgb(128,128,128)"/><stop offset="100%" stop-opacity="0.11744535279119633" style="stop-color:rgb(128,128,128)"/></linearGradient><path d=" M 71.826 219.369 C 71.123 218.355 71.541 217.055 72.759 216.47 C 73.977 215.884 75.536 216.232 76.239 217.247 C 76.942 218.261 76.524 219.561 75.307 220.146 C 74.089 220.732 72.529 220.384 71.826 219.369 Z " fill="url(#_lgradient_57)"/><linearGradient id="_lgradient_58" x1="0" y1="0.5" x2="0.8660254037844372" y2="1.0000000000000027" gradientTransform="matrix(4.413,-2.123,2.548,3.677,105.834,209.912)" gradientUnits="userSpaceOnUse"><stop offset="100%" stop-opacity="0.25" style="stop-color:rgb(128,128,128)"/><stop offset="100%" stop-opacity="0.21924961693106762" style="stop-color:rgb(128,128,128)"/><stop offset="100%" stop-opacity="0.11744535279119636" style="stop-color:rgb(128,128,128)"/></linearGradient><path d=" M 107.108 211.751 C 106.405 210.736 106.823 209.437 108.041 208.851 C 109.259 208.265 110.818 208.613 111.521 209.628 C 112.224 210.642 111.806 211.942 110.589 212.528 C 109.371 213.113 107.811 212.765 107.108 211.751 Z " fill="url(#_lgradient_58)"/><linearGradient id="_lgradient_59" x1="0" y1="0.5" x2="0.8660254037844439" y2="0.9999999999999909" gradientTransform="matrix(4.413,-2.123,2.548,3.677,141.116,217.533)" gradientUnits="userSpaceOnUse"><stop offset="100%" stop-opacity="0.25" style="stop-color:rgb(128,128,128)"/><stop offset="100%" stop-opacity="0.21921556335070413" style="stop-color:rgb(128,128,128)"/><stop offset="100%" stop-opacity="0.11744252372452002" style="stop-color:rgb(128,128,128)"/></linearGradient><path d=" M 142.39 219.372 C 141.687 218.357 142.104 217.058 143.322 216.472 C 144.54 215.886 146.099 216.234 146.802 217.249 C 147.506 218.264 147.088 219.563 145.87 220.149 C 144.652 220.735 143.093 220.386 142.39 219.372 Z " fill="url(#_lgradient_59)"/><linearGradient id="_lgradient_60" x1="0" y1="0.5" x2="0.8660254037844372" y2="1.0000000000000027" gradientTransform="matrix(4.413,-2.123,2.548,3.677,167.249,239.31)" gradientUnits="userSpaceOnUse"><stop offset="100%" stop-opacity="0.25" style="stop-color:rgb(128,128,128)"/><stop offset="100%" stop-opacity="0.21924961693106682" style="stop-color:rgb(128,128,128)"/><stop offset="100%" stop-opacity="0.11744535279119633" style="stop-color:rgb(128,128,128)"/></linearGradient><path d=" M 168.523 241.149 C 167.82 240.134 168.238 238.835 169.456 238.249 C 170.673 237.663 172.233 238.011 172.936 239.026 C 173.639 240.041 173.221 241.34 172.003 241.926 C 170.786 242.512 169.226 242.164 168.523 241.149 Z " fill="url(#_lgradient_60)"/><linearGradient id="_lgradient_61" x1="0" y1="0.5" x2="0.8660254037844372" y2="1.0000000000000027" gradientTransform="matrix(4.413,-2.123,2.548,3.677,166.598,299.738)" gradientUnits="userSpaceOnUse"><stop offset="100%" stop-opacity="0.25" style="stop-color:rgb(128,128,128)"/><stop offset="100%" stop-opacity="0.21924961693106682" style="stop-color:rgb(128,128,128)"/><stop offset="100%" stop-opacity="0.11744535279119633" style="stop-color:rgb(128,128,128)"/></linearGradient><path d=" M 167.872 301.577 C 167.169 300.562 167.587 299.263 168.805 298.677 C 170.023 298.091 171.582 298.439 172.285 299.454 C 172.988 300.469 172.57 301.768 171.353 302.354 C 170.135 302.94 168.575 302.592 167.872 301.577 Z " fill="url(#_lgradient_61)"/><linearGradient id="_lgradient_62" x1="0" y1="0.5" x2="0.8660254037844384" y2="1.0000000000000004" gradientTransform="matrix(4.413,-2.123,2.548,3.677,139.809,320.968)" gradientUnits="userSpaceOnUse"><stop offset="100%" stop-opacity="0.25" style="stop-color:rgb(128,128,128)"/><stop offset="100%" stop-opacity="0.21921556335070247" style="stop-color:rgb(128,128,128)"/><stop offset="100%" stop-opacity="0.11744252372451988" style="stop-color:rgb(128,128,128)"/></linearGradient><path d=" M 141.082 322.807 C 140.379 321.792 140.797 320.493 142.015 319.907 C 143.233 319.321 144.792 319.669 145.495 320.684 C 146.198 321.699 145.78 322.998 144.563 323.584 C 143.345 324.17 141.785 323.822 141.082 322.807 Z " fill="url(#_lgradient_62)"/><linearGradient id="_lgradient_63" x1="0" y1="0.5" x2="0.8660254037844413" y2="0.9999999999999956" gradientTransform="matrix(4.413,-2.123,2.548,3.677,105.832,327.504)" gradientUnits="userSpaceOnUse"><stop offset="100%" stop-opacity="0.25" style="stop-color:rgb(128,128,128)"/><stop offset="100%" stop-opacity="0.21924961693106682" style="stop-color:rgb(128,128,128)"/><stop offset="100%" stop-opacity="0.1174453527911963" style="stop-color:rgb(128,128,128)"/></linearGradient><path d=" M 107.106 329.343 C 106.402 328.328 106.82 327.029 108.038 326.443 C 109.256 325.857 110.815 326.205 111.518 327.22 C 112.221 328.235 111.804 329.534 110.586 330.12 C 109.368 330.706 107.809 330.358 107.106 329.343 Z " fill="url(#_lgradient_63)"/><linearGradient id="_lgradient_64" x1="0" y1="0.5" x2="0.8660254037844431" y2="0.9999999999999922" gradientTransform="matrix(4.413,-2.123,2.548,3.677,71.86,320.971)" gradientUnits="userSpaceOnUse"><stop offset="100%" stop-opacity="0.25" style="stop-color:rgb(128,128,128)"/><stop offset="100%" stop-opacity="0.21921556335070247" style="stop-color:rgb(128,128,128)"/><stop offset="100%" stop-opacity="0.11744252372451991" style="stop-color:rgb(128,128,128)"/></linearGradient><path d=" M 73.134 322.809 C 72.43 321.795 72.848 320.495 74.066 319.909 C 75.284 319.324 76.843 319.672 77.546 320.686 C 78.249 321.701 77.832 323 76.614 323.586 C 75.396 324.172 73.837 323.824 73.134 322.809 Z " fill="url(#_lgradient_64)"/><ellipse vector-effect="non-scaling-stroke" cx="109.3781322028215" cy="210.63267934247395" rx="1.9615370806955355" ry="1.6344216347246459" fill="rgb(105,240,174)"/><path d=" M 143.679 219.924 C 142.742 219.473 142.42 218.472 142.962 217.691 C 143.503 216.91 144.703 216.642 145.641 217.093 C 146.579 217.544 146.9 218.544 146.359 219.326 C 145.818 220.107 144.617 220.375 143.679 219.924 Z " fill="rgb(105,240,174)"/><path d=" M 168.787 240.849 C 168.246 240.068 168.567 239.067 169.505 238.616 C 170.443 238.165 171.643 238.433 172.185 239.214 C 172.726 239.996 172.404 240.996 171.467 241.447 C 170.529 241.898 169.328 241.63 168.787 240.849 Z " fill="rgb(105,240,174)"/><path d=" M 169.097 301.927 C 168.159 301.476 167.837 300.476 168.379 299.695 C 168.92 298.913 170.121 298.645 171.058 299.096 C 171.996 299.547 172.317 300.548 171.776 301.329 C 171.235 302.11 170.034 302.378 169.097 301.927 Z " fill="rgb(105,240,174)"/><path d=" M 141.59 322.451 C 141.049 321.67 141.37 320.669 142.308 320.218 C 143.246 319.767 144.446 320.035 144.988 320.817 C 145.529 321.598 145.207 322.598 144.27 323.049 C 143.332 323.5 142.131 323.232 141.59 322.451 Z " fill="rgb(105,240,174)"/><path d=" M 72.396 219.331 C 71.855 218.549 72.177 217.549 73.114 217.098 C 74.052 216.647 75.252 216.915 75.794 217.696 C 76.335 218.477 76.013 219.478 75.076 219.929 C 74.138 220.38 72.937 220.112 72.396 219.331 Z " fill="rgb(105,240,174)"/><path d=" M 47.292 241.448 C 46.354 240.997 46.032 239.997 46.574 239.215 C 47.115 238.434 48.315 238.166 49.253 238.617 C 50.191 239.068 50.512 240.069 49.971 240.85 C 49.43 241.631 48.229 241.899 47.292 241.448 Z " fill="rgb(105,240,174)"/><path d=" M 178.328 272.181 C 177.625 271.166 178.043 269.867 179.261 269.281 C 180.478 268.695 182.038 269.043 182.741 270.058 C 183.444 271.073 183.026 272.372 181.808 272.958 C 180.591 273.544 179.031 273.196 178.328 272.181 Z " fill="rgb(105,240,174)"/><path d=" M 46.986 301.328 C 46.445 300.547 46.767 299.546 47.704 299.095 C 48.642 298.644 49.842 298.912 50.384 299.693 C 50.925 300.475 50.603 301.475 49.666 301.926 C 48.728 302.377 47.527 302.109 46.986 301.328 Z " fill="rgb(105,240,174)"/><path d=" M 74.486 323.051 C 73.549 322.6 73.227 321.6 73.768 320.819 C 74.31 320.037 75.51 319.769 76.448 320.22 C 77.385 320.671 77.707 321.672 77.166 322.453 C 76.625 323.234 75.424 323.502 74.486 323.051 Z " fill="rgb(105,240,174)"/><ellipse vector-effect="non-scaling-stroke" cx="38.16531761228288" cy="271.06401030224964" rx="1.9615370806955426" ry="1.6344216347246174" fill="rgb(105,240,174)"/><ellipse vector-effect="non-scaling-stroke" cx="109.3781322028215" cy="328.2218013786832" rx="1.9615370806955355" ry="1.6344216347246174" fill="rgb(105,240,174)"/><g opacity="0.2"><path d=" M 36.858 275.418 C 36.868 246.558 60.161 221.309 93.63 213.879 C 127.098 206.449 162.38 218.695 179.621 243.725 C 168.41 222.026 143.708 207.278 115.444 205.409 C 87.18 203.541 59.996 214.859 44.819 234.814 C 29.642 254.769 28.964 280.083 43.058 300.582 C 38.954 292.634 36.845 284.07 36.858 275.418 L 36.858 275.418 Z " fill="rgb(108,99,255)"/></g><ellipse vector-effect="non-scaling-stroke" cx="109.37813220282158" cy="269.4295886675251" rx="3.269228467825897" ry="2.7240360578744003" fill="rgb(105,240,174)"/><path d=" M 1031.323 97.485 L 1031.323 333.287 C 1031.323 337.833 1036.563 341.519 1043.026 341.519 L 1524.106 341.519 C 1530.57 341.519 1535.81 337.833 1535.81 333.287 L 1535.81 97.485 L 1031.323 97.485 Z " fill="rgb(255,255,255)"/><g style="mix-blend-mode:normal;" opacity="0.1"><path d="M 1076.75 118.593 L 1186.337 118.593 C 1189.375 118.593 1191.843 121.06 1191.843 124.099 L 1191.843 162.878 C 1191.843 165.917 1189.375 168.384 1186.337 168.384 L 1076.75 168.384 C 1073.711 168.384 1071.244 165.917 1071.244 162.878 L 1071.244 124.099 C 1071.244 121.06 1073.711 118.593 1076.75 118.593 Z" style="stroke:none;fill:#000000;stroke-miterlimit:10;"/></g><g style="mix-blend-mode:normal;" opacity="0.1"><path d="M 1228.777 118.593 L 1338.363 118.593 C 1341.402 118.593 1343.869 121.06 1343.869 124.099 L 1343.869 162.878 C 1343.869 165.917 1341.402 168.384 1338.363 168.384 L 1228.777 168.384 C 1225.738 168.384 1223.271 165.917 1223.271 162.878 L 1223.271 124.099 C 1223.271 121.06 1225.738 118.593 1228.777 118.593 Z" style="stroke:none;fill:#000000;stroke-miterlimit:10;"/></g><path d="M 1078.443 119.292 L 1184.637 119.292 C 1187.675 119.292 1190.143 121.759 1190.143 124.798 L 1190.143 162.173 C 1190.143 165.212 1187.675 167.679 1184.637 167.679 L 1078.443 167.679 C 1075.404 167.679 1072.937 165.212 1072.937 162.173 L 1072.937 124.798 C 1072.937 121.759 1075.404 119.292 1078.443 119.292 Z" style="stroke:none;fill:#6C63FF;stroke-miterlimit:10;"/><g style="mix-blend-mode:normal;" opacity="0.1"><path d="M 1488.69 167.679 L 1382.496 167.679 C 1379.457 167.679 1376.99 165.212 1376.99 162.173 L 1376.99 124.798 C 1376.99 121.759 1379.457 119.292 1382.496 119.292 L 1488.69 119.292 C 1491.729 119.292 1494.196 121.759 1494.196 124.798 L 1494.196 162.173 C 1494.196 165.212 1491.729 167.679 1488.69 167.679 Z" style="stroke:none;fill:#444053;stroke-miterlimit:10;"/></g><path d="M 1336.663 167.679 L 1230.469 167.679 C 1227.431 167.679 1224.963 165.212 1224.963 162.173 L 1224.963 124.798 C 1224.963 121.759 1227.431 119.292 1230.469 119.292 L 1336.663 119.292 C 1339.702 119.292 1342.169 121.759 1342.169 124.798 L 1342.169 162.173 C 1342.169 165.212 1339.702 167.679 1336.663 167.679 Z" style="stroke:none;fill:#6C63FF;stroke-miterlimit:10;"/><g style="mix-blend-mode:normal;" opacity="0.1"><path d="M 1078.443 189.188 L 1184.637 189.188 C 1187.675 189.188 1190.143 191.655 1190.143 194.694 L 1190.143 232.069 C 1190.143 235.108 1187.675 237.575 1184.637 237.575 L 1078.443 237.575 C 1075.404 237.575 1072.937 235.108 1072.937 232.069 L 1072.937 194.694 C 1072.937 191.655 1075.404 189.188 1078.443 189.188 Z" style="stroke:none;fill:#444053;stroke-miterlimit:10;"/></g><g style="mix-blend-mode:normal;" opacity="0.1"><path d="M 1488.69 237.575 L 1382.496 237.575 C 1379.457 237.575 1376.99 235.108 1376.99 232.069 L 1376.99 194.694 C 1376.99 191.655 1379.457 189.188 1382.496 189.188 L 1488.69 189.188 C 1491.729 189.188 1494.196 191.655 1494.196 194.694 L 1494.196 232.069 C 1494.196 235.108 1491.729 237.575 1488.69 237.575 Z" style="stroke:none;fill:#444053;stroke-miterlimit:10;"/></g><g style="mix-blend-mode:normal;" opacity="0.1"><path d="M 1336.663 237.575 L 1230.469 237.575 C 1227.431 237.575 1224.963 235.108 1224.963 232.069 L 1224.963 194.694 C 1224.963 191.655 1227.431 189.188 1230.469 189.188 L 1336.663 189.188 C 1339.702 189.188 1342.169 191.655 1342.169 194.694 L 1342.169 232.069 C 1342.169 235.108 1339.702 237.575 1336.663 237.575 Z" style="stroke:none;fill:#444053;stroke-miterlimit:10;"/></g><g style="mix-blend-mode:normal;" opacity="0.1"><path d="M 1078.443 259.083 L 1184.637 259.083 C 1187.675 259.083 1190.143 261.551 1190.143 264.589 L 1190.143 301.965 C 1190.143 305.004 1187.675 307.471 1184.637 307.471 L 1078.443 307.471 C 1075.404 307.471 1072.937 305.004 1072.937 301.965 L 1072.937 264.589 C 1072.937 261.551 1075.404 259.083 1078.443 259.083 Z" style="stroke:none;fill:#444053;stroke-miterlimit:10;"/></g><g style="mix-blend-mode:normal;" opacity="0.1"><path d="M 1488.69 307.476 L 1382.496 307.476 C 1379.457 307.476 1376.99 305.009 1376.99 301.97 L 1376.99 264.595 C 1376.99 261.556 1379.457 259.089 1382.496 259.089 L 1488.69 259.089 C 1491.729 259.089 1494.196 261.556 1494.196 264.595 L 1494.196 301.97 C 1494.196 305.009 1491.729 307.476 1488.69 307.476 Z" style="stroke:none;fill:#444053;stroke-miterlimit:10;"/></g><g style="mix-blend-mode:normal;" opacity="0.1"><path d="M 1336.663 307.476 L 1230.469 307.476 C 1227.431 307.476 1224.963 305.009 1224.963 301.97 L 1224.963 264.595 C 1224.963 261.556 1227.431 259.089 1230.469 259.089 L 1336.663 259.089 C 1339.702 259.089 1342.169 261.556 1342.169 264.595 L 1342.169 301.97 C 1342.169 305.009 1339.702 307.476 1336.663 307.476 Z" style="stroke:none;fill:#444053;stroke-miterlimit:10;"/></g><path d=" M 1031.323 55.84 L 1031.323 98.68 L 1535.81 98.68 L 1535.81 55.84 C 1535.812 53.656 1534.579 51.561 1532.384 50.016 C 1530.19 48.471 1527.212 47.603 1524.106 47.603 L 1043.026 47.603 C 1039.921 47.603 1036.943 48.471 1034.748 50.016 C 1032.553 51.561 1031.321 53.656 1031.323 55.84 L 1031.323 55.84 Z  M 1156.172 68.513 C 1151.012 68.513 1146.829 65.571 1146.829 61.942 C 1146.829 58.312 1151.012 55.37 1156.172 55.37 C 1161.331 55.37 1165.514 58.312 1165.514 61.942 C 1165.514 63.685 1164.53 65.356 1162.778 66.588 C 1161.026 67.821 1158.649 68.513 1156.172 68.513 L 1156.172 68.513 Z  M 1410.961 68.513 C 1407.182 68.513 1403.776 66.912 1402.33 64.456 C 1400.883 62.001 1401.683 59.174 1404.355 57.295 C 1407.027 55.415 1411.045 54.853 1414.536 55.87 C 1418.028 56.887 1420.304 59.284 1420.304 61.942 C 1420.304 63.686 1419.317 65.359 1417.562 66.592 C 1415.807 67.825 1413.426 68.516 1410.946 68.513 L 1410.961 68.513 Z " fill="rgb(108,99,255)"/><g opacity="0.1"><path d=" M 1156.172 54.174 C 1151.705 54.172 1147.676 56.063 1145.964 58.965 C 1144.252 61.868 1145.195 65.21 1148.353 67.432 C 1151.511 69.655 1156.261 70.32 1160.388 69.118 C 1164.516 67.916 1167.207 65.084 1167.207 61.942 C 1167.209 59.882 1166.047 57.906 1163.977 56.45 C 1161.908 54.993 1159.1 54.174 1156.172 54.174 L 1156.172 54.174 Z  M 1156.172 68.513 C 1151.012 68.513 1146.829 65.571 1146.829 61.942 C 1146.829 58.312 1151.012 55.37 1156.172 55.37 C 1161.331 55.37 1165.514 58.312 1165.514 61.942 C 1165.514 63.685 1164.53 65.356 1162.778 66.588 C 1161.026 67.821 1158.649 68.513 1156.172 68.513 L 1156.172 68.513 Z " fill="rgb(0,0,0)"/></g><g opacity="0.1"><path d=" M 1410.946 54.174 C 1406.48 54.174 1402.453 56.067 1400.744 58.969 C 1399.034 61.872 1399.979 65.213 1403.137 67.434 C 1406.296 69.655 1411.045 70.32 1415.172 69.118 C 1419.298 67.916 1421.989 65.083 1421.989 61.942 C 1421.989 57.652 1417.045 54.174 1410.946 54.174 Z  M 1410.946 68.513 C 1407.167 68.513 1403.76 66.912 1402.314 64.456 C 1400.868 62.001 1401.668 59.174 1404.34 57.295 C 1407.012 55.415 1411.03 54.853 1414.521 55.87 C 1418.012 56.887 1420.289 59.284 1420.289 61.942 C 1420.289 65.571 1416.106 68.513 1410.946 68.513 L 1410.946 68.513 Z " fill="rgb(0,0,0)"/></g><linearGradient id="_lgradient_65" x1="0.5002957032313704" y1="0.9999835003996509" x2="0.5002957032313705" y2="-0.00004499667020940734" gradientTransform="matrix(139.451,0,0,237.28,1421.872,140.742)" gradientUnits="userSpaceOnUse"><stop offset="0%" stop-opacity="0.25" style="stop-color:rgb(128,128,128)"/><stop offset="54%" stop-opacity="0.12" style="stop-color:rgb(128,128,128)"/><stop offset="100%" stop-opacity="0.1" style="stop-color:rgb(128,128,128)"/></linearGradient><path d=" M 1557.797 353.263 C 1556.069 352.348 1554.175 351.6 1552.165 351.037 C 1552.012 350.982 1551.844 350.951 1551.672 350.947 C 1547.513 348.847 1543.627 346.493 1540.06 343.911 C 1540.819 343.483 1541.517 343.067 1542.261 342.656 C 1537.707 341.129 1535.18 337.633 1532.721 334.478 C 1526.219 326.09 1517.651 318.582 1507.417 312.302 C 1507.167 311.624 1505.702 311.768 1504.92 311.33 C 1504.401 310.979 1504.19 310.46 1504.366 309.969 C 1504.487 309.478 1504.806 309.024 1504.981 308.544 C 1505.398 307.417 1505.034 306.232 1504.852 305.074 C 1504.67 303.915 1504.745 302.623 1505.838 301.759 C 1506.187 301.476 1506.635 301.257 1506.977 300.968 C 1507.703 300.282 1507.979 299.41 1507.736 298.572 C 1507.653 297.74 1507.398 296.922 1506.977 296.143 Q 1512.555 285.466 1518.126 274.752 C 1520.729 269.766 1523.355 264.673 1523.621 259.356 C 1523.833 255.085 1522.27 250.649 1518.596 247.387 C 1519.264 247.275 1519.932 247.157 1520.592 247.024 C 1516.251 242.977 1515.781 237.618 1515.667 232.52 Q 1515.576 228.708 1515.295 224.891 C 1516.555 225.281 1517.83 225.628 1519.135 225.927 L 1520.35 226.188 C 1522.321 226.594 1524.333 226.897 1526.368 227.096 C 1527.264 227.186 1528.174 227.256 1529.078 227.299 L 1529.078 227.299 Q 1527.12 223.85 1525.169 220.391 C 1524.493 219.37 1524.081 218.273 1523.955 217.15 L 1523.955 217.15 L 1523.955 216.937 C 1523.955 216.809 1523.955 216.68 1523.993 216.552 C 1524.044 216.247 1524.144 215.946 1524.289 215.656 C 1524.356 215.512 1524.434 215.371 1524.524 215.234 C 1524.794 214.813 1525.119 214.411 1525.495 214.033 C 1525.769 213.739 1526.072 213.456 1526.376 213.168 C 1527.507 212.239 1528.426 211.193 1529.1 210.066 C 1529.367 209.496 1529.508 208.9 1529.518 208.299 C 1529.532 207.69 1529.456 207.082 1529.29 206.484 C 1529.184 206.089 1529.047 205.689 1528.895 205.304 L 1528.895 205.304 C 1528.797 205.064 1528.691 204.824 1528.584 204.589 L 1528.493 204.397 C 1528.41 204.215 1528.326 204.039 1528.235 203.863 L 1528.144 203.681 C 1528.045 203.489 1527.947 203.302 1527.841 203.11 L 1527.78 202.998 C 1526.33 200.377 1524.402 197.879 1523.226 195.183 C 1522.917 194.465 1522.663 193.736 1522.467 192.999 C 1522.414 192.812 1522.376 192.62 1522.33 192.433 C 1522.285 192.247 1522.262 192.113 1522.232 191.953 C 1522.201 191.793 1522.164 191.579 1522.133 191.392 L 1522.065 190.859 C 1522.065 190.688 1522.027 190.517 1522.012 190.325 C 1522.012 189.999 1521.966 189.674 1521.959 189.348 C 1521.959 189.23 1521.959 189.118 1521.959 189.001 C 1521.959 188.755 1521.959 188.504 1521.959 188.259 C 1521.959 188.125 1521.959 187.992 1521.959 187.864 C 1521.959 187.618 1522.012 187.373 1522.042 187.132 C 1522.042 187.015 1522.042 186.898 1522.095 186.785 Q 1522.171 186.252 1522.3 185.718 L 1522.3 185.718 C 1522.376 185.403 1522.46 185.082 1522.551 184.762 C 1522.825 183.885 1522.968 182.991 1522.976 182.093 C 1522.976 181.922 1522.976 181.746 1522.922 181.559 C 1522.869 181.372 1522.862 181.271 1522.824 181.132 C 1522.82 181.089 1522.82 181.047 1522.824 181.004 C 1522.824 180.908 1522.756 180.812 1522.725 180.716 C 1522.695 180.62 1522.687 180.625 1522.664 180.582 C 1522.642 180.54 1522.581 180.395 1522.535 180.305 C 1522.49 180.214 1522.497 180.225 1522.475 180.182 C 1522.452 180.139 1522.368 179.99 1522.308 179.899 L 1522.255 179.803 C 1522.179 179.685 1522.095 179.573 1522.012 179.461 L 1522.012 179.461 C 1521.718 179.072 1521.377 178.7 1520.995 178.351 L 1520.995 178.351 C 1518.498 176.045 1514.346 174.288 1512.062 171.747 C 1510.728 170.1 1509.859 168.288 1509.504 166.409 C 1509.39 165.982 1509.292 165.555 1509.185 165.133 C 1509.079 164.711 1508.988 164.295 1508.882 163.878 C 1508.813 163.622 1508.745 163.345 1508.669 163.11 L 1508.624 162.944 C 1508.563 162.741 1508.502 162.533 1508.434 162.33 L 1508.388 162.186 C 1508.32 161.973 1508.252 161.759 1508.176 161.545 L 1508.13 161.433 C 1508.055 161.209 1507.971 160.985 1507.888 160.761 C 1507.884 160.734 1507.884 160.707 1507.888 160.681 C 1507.796 160.446 1507.698 160.211 1507.599 159.976 L 1507.599 159.928 C 1507.493 159.682 1507.387 159.442 1507.273 159.202 L 1507.273 159.202 C 1507.159 158.956 1507.038 158.705 1506.908 158.46 L 1506.908 158.46 C 1506.772 158.209 1506.643 157.958 1506.499 157.713 L 1506.499 157.713 C 1505.544 155.993 1504.251 154.375 1502.658 152.908 C 1499.182 149.769 1493.809 147.516 1488.238 147.666 C 1485.248 147.746 1482.379 148.482 1479.563 149.214 L 1472.255 151.109 L 1474.296 150.447 C 1472.171 150.58 1470 150.719 1468.08 151.381 C 1466.16 152.043 1464.536 153.34 1464.475 154.856 C 1464.437 155.737 1464.931 156.613 1464.771 157.488 C 1464.506 158.935 1462.616 159.917 1461.637 161.198 C 1461.063 161.97 1460.8 162.838 1460.878 163.708 L 1460.878 163.75 C 1460.878 163.852 1460.878 163.948 1460.878 164.049 C 1460.874 164.078 1460.874 164.106 1460.878 164.135 L 1460.878 164.305 C 1457.842 163.377 1454.806 162.41 1451.77 161.375 C 1446.754 159.64 1441.676 157.6 1438.549 154.312 C 1437.547 153.244 1436.773 152.091 1435.779 151.034 C 1434.638 149.897 1433.369 148.825 1431.984 147.831 L 1422.672 140.742 C 1421.958 141.687 1422.877 142.802 1423.598 143.742 C 1424.363 144.727 1424.943 145.779 1425.321 146.87 C 1425.504 147.226 1425.488 147.617 1425.275 147.965 C 1424.936 148.251 1424.497 148.47 1424 148.6 C 1422.251 149.374 1421.463 150.88 1422.08 152.267 C 1422.752 153.619 1424.388 154.621 1426.383 154.905 C 1427.041 154.957 1427.686 155.068 1428.303 155.236 C 1429.427 155.625 1429.958 156.533 1430.762 157.211 C 1432.227 158.449 1434.557 158.914 1436.781 159.319 C 1440.227 162.117 1443.809 164.797 1447.254 167.594 C 1452.468 171.827 1457.804 176.135 1464.604 178.997 C 1465.31 179.296 1466.031 179.573 1466.76 179.83 C 1466.76 179.915 1466.76 180 1466.722 180.086 C 1466.531 180.717 1466.646 181.374 1467.048 181.954 C 1467.655 182.632 1468.908 182.835 1470.023 182.974 L 1475.169 183.62 C 1475.123 184.089 1475.04 184.556 1474.918 185.018 C 1474.85 185.301 1474.767 185.579 1474.691 185.862 L 1474.691 185.862 L 1474.6 186.225 C 1474.6 186.225 1474.6 186.262 1474.6 186.278 C 1474.6 186.278 1474.6 186.47 1474.547 186.572 C 1474.547 186.572 1474.547 186.641 1474.547 186.673 L 1474.547 186.93 L 1474.547 187.036 C 1474.547 187.148 1474.547 187.266 1474.547 187.383 C 1474.721 188.803 1476.064 189.978 1477.408 191.062 L 1478.129 191.675 C 1476.985 192.689 1476.183 193.872 1475.784 195.135 C 1475.555 195.927 1475.443 196.734 1475.45 197.542 C 1474.762 198.004 1474.241 198.575 1473.932 199.208 C 1473.572 200.083 1473.438 200.996 1473.537 201.904 L 1473.537 201.968 C 1473.537 202.304 1473.537 202.635 1473.537 202.971 C 1473.449 204.247 1473.749 205.521 1474.418 206.708 C 1474.486 206.804 1474.562 206.89 1474.63 206.981 C 1473.492 208.55 1471.594 209.773 1470.236 211.251 C 1467.421 214.615 1467.903 218.858 1471.442 221.864 C 1472.482 222.708 1473.818 223.519 1473.939 224.64 C 1473.921 225.148 1473.85 225.655 1473.727 226.156 C 1473.605 227.363 1474.395 228.505 1474.82 229.674 C 1475.176 230.646 1475.192 231.81 1474.402 232.589 C 1473.604 233.408 1473.236 234.397 1473.363 235.386 C 1473.75 236.897 1472.862 238.408 1472.71 239.94 C 1472.642 240.597 1472.71 241.264 1472.626 241.92 C 1472.517 242.55 1472.332 243.171 1472.072 243.778 C 1472.072 243.842 1472.027 243.912 1471.996 243.981 C 1470.122 244.563 1468.262 245.166 1466.471 245.866 C 1465.504 246.169 1464.704 246.686 1464.194 247.339 C 1463.892 247.995 1463.85 248.696 1464.073 249.368 L 1465.69 257.279 L 1465.409 257.194 Q 1465.598 259.137 1465.803 261.096 C 1465.902 262.084 1466.031 263.13 1466.866 263.92 C 1467.291 264.239 1467.674 264.584 1468.012 264.95 C 1468.649 265.858 1467.89 266.915 1467.329 267.844 C 1466.767 268.773 1466.57 270.091 1467.807 270.593 C 1468.452 270.909 1469.148 271.17 1469.879 271.372 C 1468.361 275.825 1469.758 280.49 1471.169 284.959 Q 1472.786 290.083 1474.41 295.198 C 1474.833 296.646 1475.072 298.118 1475.123 299.597 C 1475.123 299.81 1475.123 300.024 1475.123 300.237 C 1475.276 302.27 1475.785 304.282 1476.641 306.227 C 1478.326 310.22 1476.71 315.014 1477.241 319.365 C 1477.594 321.457 1478.188 323.527 1479.017 325.552 C 1482.683 335.78 1485.954 345.806 1487.214 356.322 C 1488.561 357.53 1490.39 358.427 1492.466 358.901 C 1492.314 360.193 1492.519 361.671 1492.466 362.424 C 1492.463 363.047 1492.325 363.667 1492.056 364.261 C 1491.411 365.446 1489.779 366.22 1488.086 366.636 C 1487.555 366.764 1487.016 366.866 1486.47 366.956 L 1487.077 366.593 C 1483.607 366.063 1479.98 366.512 1476.975 367.843 C 1476.022 368.184 1475.303 368.78 1474.979 369.498 C 1474.854 370.176 1475.104 370.862 1475.677 371.414 C 1477.348 373.134 1479.838 374.378 1482.698 374.921 C 1485.524 375.445 1488.428 375.73 1491.35 375.77 L 1496.708 375.989 C 1496.332 376.434 1496.481 377.007 1497.057 377.329 C 1497.632 377.624 1498.313 377.798 1499.023 377.831 C 1501.212 378.059 1503.435 378.083 1505.633 377.9 C 1506.185 377.889 1506.717 377.754 1507.151 377.516 C 1507.356 377.385 1507.472 377.2 1507.472 377.006 C 1507.472 376.812 1507.356 376.627 1507.151 376.496 C 1507.809 376.481 1508.387 376.185 1508.609 375.749 C 1508.819 375.315 1508.886 374.853 1508.806 374.398 C 1508.662 372.642 1508.442 370.09 1507.144 368.526 C 1506.683 367.941 1505.723 367.644 1504.799 367.8 C 1503.959 364.674 1503.452 361.508 1503.281 358.33 C 1504.618 357.977 1505.921 357.563 1507.182 357.091 C 1503.455 352.858 1503.387 347.482 1504.525 342.56 C 1504.977 341.006 1505.309 339.436 1505.52 337.857 C 1505.77 334.707 1505.095 331.141 1502.613 328.536 C 1507.137 330.56 1511.14 333.108 1514.453 336.074 C 1519.697 340.878 1522.892 346.697 1529.32 350.701 Q 1530.588 349.831 1531.886 348.971 Q 1533.92 351.395 1535.734 353.92 C 1536.682 355.158 1537.431 356.467 1537.965 357.822 C 1538.557 359.896 1538.626 362.026 1538.17 364.116 Q 1537.904 365.782 1537.525 367.432 C 1537.423 367.902 1537.268 368.366 1537.062 368.82 C 1537.059 368.675 1537.01 368.533 1536.918 368.403 C 1536.515 367.907 1535.4 368.131 1534.793 368.473 C 1533.711 369.043 1532.818 369.772 1532.174 370.608 C 1531.82 371.016 1531.655 371.492 1531.704 371.969 C 1531.903 372.551 1532.459 373.04 1533.222 373.304 C 1536.037 374.462 1539.574 373.624 1542.595 372.77 C 1543.429 372.559 1544.224 372.277 1544.963 371.932 C 1546.481 371.163 1547.308 369.898 1548.818 369.151 C 1549.624 368.839 1550.402 368.493 1551.148 368.115 C 1552.552 367.213 1552.666 365.691 1553.691 364.549 C 1555.391 362.579 1559.193 362.072 1560.681 359.984 C 1562.403 357.678 1560.392 354.769 1557.797 353.263 Z " fill="url(#_lgradient_65)"/><path d=" M 1492.367 362.659 C 1492.362 363.276 1492.221 363.888 1491.949 364.474 C 1491.312 365.643 1489.673 366.407 1487.988 366.818 C 1486.303 367.229 1484.512 367.351 1482.796 367.709 C 1482.043 367.83 1481.346 368.083 1480.77 368.446 C 1479.252 369.514 1480.163 371.435 1481.939 372.231 C 1483.715 373.026 1485.976 373 1488.086 372.898 C 1492.563 372.715 1497.011 372.27 1501.383 371.569 C 1502.962 371.307 1504.806 370.795 1505.057 369.668 C 1505.104 369.31 1505.063 368.949 1504.935 368.601 C 1503.858 364.779 1503.286 360.896 1503.228 357 C 1503.228 356.744 1494.424 356.579 1493.604 356.952 C 1491.767 357.801 1492.466 361.346 1492.367 362.659 Z " fill="rgb(161,97,106)"/><path d=" M 1531.62 349.062 Q 1533.806 351.609 1535.726 354.256 C 1536.674 355.476 1537.423 356.767 1537.957 358.105 C 1538.546 360.15 1538.615 362.252 1538.162 364.314 Q 1537.897 365.953 1537.51 367.586 C 1537.259 368.654 1536.857 369.866 1535.559 370.48 C 1536.731 370.968 1538.155 371.057 1539.43 370.72 C 1540.682 370.379 1541.837 369.882 1542.838 369.252 C 1549.342 365.478 1554.222 359.995 1554.465 354.064 C 1554.533 353.601 1554.409 353.134 1554.108 352.719 C 1553.801 352.429 1553.414 352.185 1552.97 352.004 C 1548.116 349.678 1543.608 347.015 1539.513 344.055 C 1539.273 343.827 1538.922 343.669 1538.527 343.612 C 1538.216 343.613 1537.911 343.674 1537.646 343.788 C 1535.149 344.669 1530.975 345.923 1529.935 347.925 C 1530.646 348.177 1531.233 348.573 1531.62 349.062 L 1531.62 349.062 Z " fill="rgb(161,97,106)"/><path d=" M 1501.262 368.857 C 1495.797 370.458 1489.877 371.035 1483.965 371.585 C 1483.206 371.649 1482.394 371.692 1481.893 371.318 C 1481.486 370.961 1481.432 370.465 1481.757 370.069 C 1482.079 369.684 1482.51 369.349 1483.024 369.086 L 1486.948 366.775 C 1483.527 366.264 1479.957 366.696 1476.975 367.981 C 1476.038 368.31 1475.323 368.886 1474.987 369.583 C 1474.86 370.254 1475.111 370.934 1475.685 371.478 C 1477.364 373.18 1479.85 374.407 1482.698 374.937 C 1485.523 375.452 1488.424 375.734 1491.342 375.775 L 1496.655 375.989 C 1496.276 376.43 1496.43 377 1497.012 377.313 C 1497.588 377.609 1498.272 377.785 1498.985 377.82 C 1501.173 378.044 1503.392 378.066 1505.588 377.884 C 1506.139 377.878 1506.672 377.745 1507.106 377.505 C 1507.309 377.377 1507.425 377.195 1507.425 377.003 C 1507.425 376.812 1507.309 376.629 1507.106 376.501 C 1507.762 376.488 1508.339 376.193 1508.563 375.759 C 1508.766 375.332 1508.833 374.878 1508.76 374.43 C 1508.616 372.701 1508.396 370.159 1507.098 368.649 C 1505.8 367.138 1503.099 368.323 1501.262 368.857 Z " fill="rgb(63,61,86)"/><path d=" M 1557.66 353.594 C 1555.929 352.691 1554.035 351.954 1552.028 351.4 C 1551.866 351.313 1551.656 351.282 1551.457 351.318 C 1551.259 351.353 1551.095 351.45 1551.011 351.582 C 1547.427 355.003 1544.628 358.799 1542.716 362.83 C 1541.631 365.125 1540.773 367.57 1538.572 369.428 C 1538.284 369.674 1537.813 369.925 1537.419 369.78 C 1536.849 369.578 1537.198 368.932 1536.88 368.542 C 1536.485 368.051 1535.407 368.275 1534.762 368.611 C 1533.678 369.178 1532.786 369.907 1532.151 370.747 C 1531.788 371.144 1531.622 371.616 1531.681 372.087 C 1531.873 372.657 1532.415 373.138 1533.161 373.4 C 1535.977 374.548 1539.513 373.72 1542.526 372.866 C 1543.359 372.66 1544.151 372.382 1544.887 372.039 C 1546.405 371.286 1547.232 370.031 1548.742 369.3 C 1549.548 368.992 1550.326 368.65 1551.072 368.275 C 1552.469 367.384 1552.59 365.883 1553.607 364.752 C 1555.307 362.814 1559.11 362.312 1560.597 360.251 C 1562.259 357.951 1560.256 355.078 1557.66 353.594 Z " fill="rgb(63,61,86)"/><path d=" M 1515.303 246.96 C 1521.268 250.11 1523.773 255.71 1523.507 260.952 C 1523.241 266.194 1520.623 271.223 1518.027 276.14 Q 1512.449 286.694 1506.886 297.242 C 1507.299 298.014 1507.555 298.823 1507.645 299.645 C 1507.883 300.471 1507.606 301.33 1506.886 302.004 C 1506.537 302.287 1506.127 302.506 1505.747 302.784 C 1504.654 303.638 1504.586 304.919 1504.761 306.056 C 1504.935 307.193 1505.307 308.367 1504.89 309.478 C 1504.715 309.953 1504.396 310.401 1504.275 310.882 C 1504.102 311.368 1504.314 311.881 1504.829 312.227 C 1505.588 312.654 1507.106 312.515 1507.326 313.188 C 1517.531 319.371 1526.089 326.782 1532.599 335.076 C 1535.058 338.188 1537.54 341.636 1542.132 343.142 C 1537.658 345.635 1533.369 348.288 1529.283 351.091 C 1522.869 347.14 1519.674 341.391 1514.437 336.677 C 1511.122 333.745 1507.124 331.231 1502.613 329.241 C 1505.095 331.808 1505.77 335.332 1505.52 338.433 C 1505.309 339.991 1504.978 341.54 1504.525 343.072 C 1503.349 347.93 1503.455 353.215 1507.182 357.411 C 1503.205 358.863 1498.636 359.942 1494.196 359.509 C 1491.41 359.231 1488.88 358.215 1487.122 356.669 C 1485.863 346.291 1482.569 336.383 1478.933 326.31 C 1478.1 324.3 1477.508 322.245 1477.165 320.165 C 1476.634 315.895 1478.25 311.143 1476.558 307.204 C 1475.705 305.288 1475.195 303.304 1475.04 301.299 C 1475.04 301.086 1475.04 300.878 1475.04 300.664 C 1474.988 299.207 1474.749 297.756 1474.326 296.329 L 1471.093 286.229 C 1469.682 281.814 1468.27 277.213 1469.795 272.819 C 1469.068 272.621 1468.375 272.365 1467.731 272.056 C 1466.494 271.559 1466.691 270.262 1467.253 269.344 C 1467.815 268.426 1468.566 267.385 1467.936 266.488 C 1467.6 266.124 1467.216 265.782 1466.79 265.468 C 1465.955 264.689 1465.826 263.658 1465.727 262.687 L 1465.333 258.832 C 1467.624 259.471 1469.532 260.646 1470.737 262.158 C 1467.746 258.902 1469.219 254.257 1471.427 250.702 C 1472.27 248.465 1475.106 246.886 1478.394 246.821 C 1490.561 245.358 1505.421 241.734 1515.303 246.96 Z " fill="rgb(63,61,86)"/><g opacity="0.1"><path d=" M 1509.755 268.879 C 1509.755 268.879 1503.774 271.687 1503.774 273.791 C 1503.774 273.791 1502.256 294.824 1502.256 294.824 L 1502.256 308.17 C 1502.256 308.17 1503.25 315.185 1502.256 316.936 C 1502.256 316.936 1502.256 326.753 1502.256 327.805 C 1502.256 327.805 1503.774 316.936 1503.774 316.936 L 1503.774 304.294 L 1505.292 275.542 L 1509.755 268.879 Z " fill="rgb(0,0,0)"/></g><path d=" M 1476.398 171.646 L 1472.915 170.69 C 1465.796 168.683 1458.669 166.67 1451.778 164.316 C 1446.769 162.602 1441.691 160.579 1438.572 157.35 C 1437.57 156.282 1436.796 155.161 1435.802 154.109 C 1434.659 152.984 1433.39 151.926 1432.007 150.943 L 1422.702 143.95 C 1421.989 144.884 1422.9 145.984 1423.628 146.908 C 1424.391 147.881 1424.97 148.92 1425.351 149.999 C 1425.53 150.346 1425.511 150.728 1425.298 151.066 C 1424.963 151.352 1424.525 151.569 1424.03 151.696 C 1422.287 152.448 1421.495 153.938 1422.11 155.31 C 1422.788 156.651 1424.421 157.641 1426.406 157.915 C 1427.062 157.969 1427.707 158.078 1428.326 158.241 C 1429.449 158.631 1429.981 159.522 1430.785 160.19 C 1432.25 161.412 1434.58 161.876 1436.796 162.272 C 1440.242 165.031 1443.816 167.674 1447.262 170.434 C 1452.468 174.609 1457.796 178.858 1464.597 181.687 C 1467.012 182.726 1469.656 183.473 1472.421 183.897 C 1473.336 179.753 1474.665 175.659 1476.398 171.646 L 1476.398 171.646 Z " fill="rgb(161,97,106)"/><g opacity="0.15"><path d=" M 1476.398 171.646 L 1472.915 170.69 C 1465.796 168.683 1458.669 166.67 1451.778 164.316 C 1446.769 162.602 1441.691 160.579 1438.572 157.35 C 1437.57 156.282 1436.796 155.161 1435.802 154.109 C 1434.659 152.984 1433.39 151.926 1432.007 150.943 L 1422.702 143.95 C 1421.989 144.884 1422.9 145.984 1423.628 146.908 C 1424.391 147.881 1424.97 148.92 1425.351 149.999 C 1425.53 150.346 1425.511 150.728 1425.298 151.066 C 1424.963 151.352 1424.525 151.569 1424.03 151.696 C 1422.287 152.448 1421.495 153.938 1422.11 155.31 C 1422.788 156.651 1424.421 157.641 1426.406 157.915 C 1427.062 157.969 1427.707 158.078 1428.326 158.241 C 1429.449 158.631 1429.981 159.522 1430.785 160.19 C 1432.25 161.412 1434.58 161.876 1436.796 162.272 C 1440.242 165.031 1443.816 167.674 1447.262 170.434 C 1452.468 174.609 1457.796 178.858 1464.597 181.687 C 1467.012 182.726 1469.656 183.473 1472.421 183.897 C 1473.336 179.753 1474.665 175.659 1476.398 171.646 L 1476.398 171.646 Z " fill="rgb(0,0,0)"/></g><path d=" M 1470.023 185.584 C 1468.908 185.446 1467.655 185.253 1467.048 184.581 C 1466.646 184.01 1466.531 183.361 1466.722 182.739 C 1467.325 178.715 1468.599 174.756 1470.516 170.941 C 1472.209 173.146 1475.541 174.432 1478.698 175.591 C 1481.517 176.693 1484.455 177.636 1487.487 178.409 C 1486.728 178.239 1484.868 186.449 1483.821 186.951 C 1482.5 187.602 1479.313 186.721 1477.848 186.545 L 1470.023 185.584 Z " fill="rgb(108,99,255)"/><ellipse vector-effect="non-scaling-stroke" cx="1478.1060622791213" cy="171.93935394321136" rx="15.953279007603669" ry="11.221316267242798" fill="rgb(161,97,106)"/><path d=" M 1474.865 181.228 C 1474.865 181.228 1485.331 187.538 1480.846 191.745 C 1480.846 191.745 1473.863 198.759 1479.844 199.112 C 1479.844 199.112 1505.762 192.097 1505.762 192.097 C 1505.762 192.097 1487.32 181.581 1490.31 175.271 C 1493.3 168.961 1474.865 181.228 1474.865 181.228 Z " fill="rgb(251,190,190)"/><path d=" M 1484.906 191.104 C 1480.357 191.873 1476.812 194.381 1475.746 197.585 C 1474.569 201.365 1477.066 205.593 1474.714 209.073 C 1473.605 210.728 1471.549 211.967 1470.16 213.52 C 1467.357 216.834 1467.838 221.033 1471.359 223.989 C 1472.399 224.822 1473.734 225.628 1473.856 226.727 C 1473.838 227.229 1473.767 227.728 1473.643 228.222 C 1473.522 229.413 1474.311 230.544 1474.736 231.697 C 1475.093 232.653 1475.108 233.801 1474.319 234.569 C 1473.523 235.375 1473.157 236.353 1473.287 237.329 C 1473.666 238.824 1472.778 240.314 1472.626 241.824 C 1472.558 242.476 1472.626 243.127 1472.543 243.778 C 1472.432 244.398 1472.25 245.01 1471.996 245.609 L 1470.661 249.074 C 1477.901 251.252 1485.597 252.037 1493.429 251.935 C 1500.442 251.839 1507.356 250.82 1514.217 249.8 C 1516.304 249.49 1518.392 249.181 1520.448 248.78 C 1516.107 244.787 1515.644 239.497 1515.523 234.473 C 1515.333 226.098 1514.444 217.738 1512.859 209.436 C 1514.961 206.644 1515.895 203.532 1516.76 200.43 C 1517.148 199.181 1517.311 197.902 1517.245 196.624 C 1517.033 193.955 1515.287 191.419 1513.58 189.001 C 1512.016 186.791 1510.324 184.463 1506.84 183.508 C 1505.13 183.001 1503.169 183.152 1501.657 183.908 C 1499.023 185.307 1499.805 187.72 1499.129 189.78 C 1498.241 192.449 1494.742 194.366 1491.016 195.119 C 1488.235 195.631 1485.353 195.821 1482.485 195.679 C 1481.912 195.656 1481.407 195.408 1481.179 195.037 C 1480.951 194.667 1481.039 194.238 1481.408 193.928 C 1482.629 192.978 1483.859 192.012 1484.906 191.104 Z " fill="rgb(108,99,255)"/><path d=" M 1497.262 234.479 C 1491.357 237.874 1485.384 241.301 1478.569 243.703 C 1474.569 245.113 1470.319 246.154 1466.426 247.67 C 1465.463 247.967 1464.664 248.477 1464.149 249.122 C 1463.839 249.768 1463.797 250.462 1464.027 251.124 L 1465.758 259.516 C 1466.236 261.79 1469.34 263.253 1471.829 264.705 C 1471.693 263.941 1471.473 263.349 1471.989 262.671 C 1472.168 262.459 1472.363 262.254 1472.573 262.057 C 1473.636 260.925 1473.674 259.457 1473.416 258.112 C 1473.158 256.767 1472.657 255.443 1472.755 254.065 C 1472.712 253.602 1473.017 253.156 1473.56 252.891 C 1482.037 250.024 1491.168 247.825 1499.736 245.102 C 1502.003 244.458 1504.139 243.605 1506.089 242.566 C 1508.048 241.509 1509.365 239.97 1509.777 238.258 C 1509.857 238.034 1509.802 237.797 1509.626 237.602 C 1509.454 237.469 1509.229 237.376 1508.98 237.335 C 1505.14 236.352 1501.087 235.45 1497.262 234.479 Z " fill="rgb(161,97,106)"/><g opacity="0.1"><path d=" M 1480.861 199.267 C 1477.932 199.614 1474.85 200.681 1473.856 202.657 C 1473.498 203.522 1473.365 204.427 1473.461 205.326 C 1473.37 206.59 1473.673 207.852 1474.349 209.025 C 1474.849 209.673 1475.444 210.281 1476.125 210.84 C 1483.138 217.161 1486.66 225.099 1493.49 231.521 C 1494.097 232.087 1495.205 232.824 1494.864 233.491 C 1494.74 233.664 1494.631 233.842 1494.537 234.025 C 1494.474 234.375 1494.662 234.725 1495.038 234.959 C 1495.403 235.194 1495.685 235.484 1495.866 235.808 C 1495.995 236.144 1495.676 236.582 1495.183 236.555 C 1496.002 238.338 1498.514 239.379 1500.898 240.223 C 1504.859 241.627 1509.246 242.732 1513.656 242.428 C 1514.483 240.095 1515.636 237.458 1515.174 235.082 C 1514.689 233.268 1513.833 231.513 1512.631 229.872 L 1509.664 225.313 C 1507.136 221.421 1504.586 217.503 1501.065 214.017 C 1499.796 212.913 1498.728 211.703 1497.884 210.413 C 1496.981 208.764 1494.5 207.605 1492.997 206.191 C 1490.765 204.055 1488.443 201.92 1485.453 200.377 C 1484.254 199.726 1482.326 199.096 1480.861 199.267 Z " fill="rgb(0,0,0)"/></g><path d=" M 1480.861 198.215 C 1477.932 198.562 1474.85 199.63 1473.856 201.6 C 1473.5 202.466 1473.366 203.37 1473.461 204.269 C 1473.37 205.533 1473.673 206.795 1474.349 207.968 C 1474.849 208.616 1475.444 209.224 1476.125 209.783 C 1483.138 216.104 1486.66 224.042 1493.49 230.464 C 1494.097 231.03 1495.205 231.767 1494.864 232.434 C 1494.74 232.607 1494.631 232.785 1494.537 232.968 C 1494.474 233.318 1494.662 233.668 1495.038 233.902 C 1495.403 234.137 1495.685 234.427 1495.866 234.751 C 1495.995 235.087 1495.676 235.525 1495.183 235.498 C 1496.002 237.281 1498.514 238.322 1500.898 239.166 C 1504.859 240.57 1509.246 241.675 1513.656 241.371 C 1514.483 239.038 1515.636 236.401 1515.174 234.025 C 1514.689 232.211 1513.833 230.456 1512.631 228.815 L 1509.664 224.256 C 1507.136 220.364 1504.586 216.446 1501.065 212.96 C 1499.794 211.855 1498.726 210.643 1497.884 209.351 C 1496.981 207.707 1494.5 206.548 1492.997 205.134 C 1490.765 202.998 1488.443 200.863 1485.453 199.32 C 1484.254 198.674 1482.326 198.044 1480.861 198.215 Z " fill="rgb(108,99,255)"/><path d=" M 1474.175 153.506 C 1472.057 153.634 1469.879 153.773 1467.966 154.424 C 1466.054 155.075 1464.422 156.357 1464.361 157.851 C 1464.361 158.721 1464.817 159.586 1464.657 160.446 C 1464.392 161.876 1462.502 162.843 1461.53 164.108 C 1459.83 166.307 1461.151 169.105 1463.352 171.048 C 1465.553 172.991 1468.536 174.486 1470.797 176.418 C 1474.407 179.545 1475.908 183.62 1474.911 187.586 C 1474.63 188.348 1474.495 189.132 1474.509 189.919 C 1474.683 191.318 1476.027 192.476 1477.362 193.544 C 1483.86 198.888 1489.873 204.516 1495.365 210.392 C 1497.012 212.099 1498.493 213.882 1499.797 215.73 C 1501.087 217.641 1502.074 219.681 1503.865 221.373 C 1505.519 222.826 1507.545 224.048 1509.838 224.976 C 1515.623 227.486 1522.185 228.975 1528.964 229.316 L 1525.055 222.499 C 1524.364 221.288 1523.651 220.012 1523.879 218.714 C 1524.311 216.259 1527.833 214.647 1528.979 212.308 C 1529.738 210.803 1529.396 209.143 1528.774 207.611 C 1527.393 204.157 1524.63 201.05 1523.143 197.617 C 1521.838 194.607 1521.547 191.425 1522.293 188.323 C 1522.619 186.956 1523.15 185.584 1522.907 184.212 C 1522.186 180.038 1515.227 178.041 1512.009 174.502 C 1509.929 172.228 1509.527 169.425 1508.829 166.766 C 1507.819 162.885 1506.021 159.01 1502.544 155.913 C 1499.068 152.817 1493.71 150.575 1488.124 150.741 C 1485.134 150.821 1482.273 151.552 1479.457 152.267 L 1472.141 154.141" fill="rgb(63,61,86)"/><g opacity="0.1"><path d=" M 1506.833 162.223 C 1507.463 164.62 1507.857 167.135 1509.451 169.275 C 1509.231 168.443 1509.049 167.605 1508.829 166.782 C 1508.313 164.69 1507.494 162.64 1506.385 160.665 C 1506.575 161.182 1506.704 161.7 1506.833 162.223 Z " fill="rgb(0,0,0)"/></g><g opacity="0.1"><path d=" M 1520.296 183.78 C 1519.555 186.884 1519.846 190.067 1521.147 193.079 C 1521.503 193.896 1521.905 194.681 1522.391 195.482 C 1521.759 193.124 1521.726 190.705 1522.293 188.339 C 1522.619 186.972 1523.15 185.6 1522.907 184.228 C 1522.684 183.053 1522.001 181.944 1520.934 181.025 C 1520.82 181.954 1520.517 182.867 1520.296 183.78 Z " fill="rgb(0,0,0)"/></g><g opacity="0.1"><path d=" M 1528.774 207.627 C 1528.354 206.624 1527.847 205.639 1527.256 204.68 C 1527.511 205.71 1527.413 206.768 1526.968 207.765 C 1525.822 210.098 1522.293 211.716 1521.868 214.171 C 1521.64 215.469 1522.346 216.745 1523.044 217.956 C 1523.302 218.41 1523.56 218.869 1523.803 219.323 C 1523.784 219.126 1523.784 218.928 1523.803 218.73 C 1524.235 216.275 1527.757 214.663 1528.903 212.324 C 1529.723 210.819 1529.396 209.159 1528.774 207.627 Z " fill="rgb(0,0,0)"/></g><g opacity="0.1"><path d=" M 1507.85 220.433 C 1505.556 219.503 1503.531 218.279 1501.877 216.825 C 1500.078 215.132 1499.091 213.088 1497.801 211.182 C 1496.499 209.333 1495.018 207.549 1493.369 205.844 C 1487.879 199.966 1481.869 194.337 1475.374 188.99 C 1475.139 188.803 1474.911 188.611 1474.683 188.419 C 1474.527 188.913 1474.468 189.419 1474.509 189.924 C 1474.683 191.323 1476.027 192.482 1477.362 193.549 C 1483.86 198.894 1489.873 204.521 1495.365 210.397 C 1497.012 212.104 1498.493 213.888 1499.797 215.736 C 1501.087 217.647 1502.074 219.686 1503.865 221.378 C 1505.519 222.831 1507.545 224.054 1509.838 224.982 C 1515.623 227.491 1522.185 228.98 1528.964 229.322 L 1526.307 224.731 C 1519.763 224.328 1513.443 222.856 1507.85 220.433 Z " fill="rgb(0,0,0)"/></g><g opacity="0.1"><path d=" M 1468.801 171.881 C 1466.524 169.948 1463.557 168.48 1461.356 166.516 C 1461.159 166.334 1460.969 166.147 1460.779 165.95 C 1460.734 167.818 1461.647 169.636 1463.352 171.069 C 1465.553 173.039 1468.536 174.507 1470.797 176.44 C 1471.68 177.19 1472.444 178.006 1473.074 178.874 C 1472.604 176.308 1471.124 173.886 1468.801 171.881 L 1468.801 171.881 Z " fill="rgb(0,0,0)"/></g><path d=" M 1172.542 117.082 L 1167.04 113.19 C 1166.491 112.801 1165.744 112.582 1164.964 112.582 C 1164.184 112.582 1163.437 112.801 1162.888 113.19 L 1128.333 137.272 L 1113.716 126.915 C 1112.577 126.115 1110.733 126.115 1109.594 126.915 L 1104.031 130.786 C 1102.894 131.595 1102.894 132.897 1104.031 133.706 L 1126.231 149.438 C 1127.378 150.237 1129.227 150.237 1130.375 149.438 L 1172.542 120.002 C 1173.096 119.616 1173.408 119.09 1173.408 118.542 C 1173.408 117.994 1173.096 117.468 1172.542 117.082 L 1172.542 117.082 Z " fill="rgb(58,204,108)"/><path d=" M 1325.093 117.082 L 1319.59 113.19 C 1319.042 112.801 1318.294 112.582 1317.515 112.582 C 1316.735 112.582 1315.988 112.801 1315.439 113.19 L 1280.883 137.272 L 1266.266 126.915 C 1265.128 126.115 1263.283 126.115 1262.145 126.915 L 1256.582 130.786 C 1255.444 131.595 1255.444 132.897 1256.582 133.706 L 1278.781 149.438 C 1279.929 150.237 1281.777 150.237 1282.925 149.438 L 1325.093 120.002 C 1325.647 119.616 1325.958 119.09 1325.958 118.542 C 1325.958 117.994 1325.647 117.468 1325.093 117.082 L 1325.093 117.082 Z " fill="rgb(58,204,108)"/><g><path d=" M 973.227 257.001 C 998.796 245.59 1030.1 241.065 1064.616 240.362 C 1048.033 187.88 1038.142 135.32 1035.909 82.683 L 944.52 99.321 C 947.262 152.69 956.985 206.09 973.227 257.001 L 973.227 257.001 Z " fill="rgb(242,242,242)"/><rect x="971.212" y="82.345" width="32.312" height="14.762" transform="matrix(-0.984,0.179,-0.179,-0.984,1974.841,1.147)" fill="rgb(63,61,86)"/><rect x="967.621" y="132.623" width="57.274" height="10.799" transform="matrix(0.984,-0.179,0.179,0.984,-8.611,180.678)" fill="rgb(108,99,255)"/><rect x="971.639" y="154.69" width="57.274" height="10.799" transform="matrix(0.984,-0.179,0.179,0.984,-12.498,181.754)" fill="rgb(108,99,255)"/></g></g></svg>