<?xml version="1.0" encoding="UTF-8" standalone="no"?>
<!-- Generator: Gravit.io -->
<svg xmlns="http://www.w3.org/2000/svg" xmlns:xlink="http://www.w3.org/1999/xlink" style="isolation:isolate" viewBox="0 0 1600 420" width="1600px" height="420px"><defs><clipPath id="_clipPath_5aykc89jBmsYU7CIEektB8GGTF6bjdip"><rect width="1600" height="420"/></clipPath></defs><g clip-path="url(#_clipPath_5aykc89jBmsYU7CIEektB8GGTF6bjdip)"><path d=" M 646.999 -129.568 C 672.568 -140.978 703.872 -145.503 738.388 -146.206 C 721.805 -198.688 711.915 -251.248 709.681 -303.885 L 618.292 -287.247 C 621.035 -233.879 630.757 -180.478 646.999 -129.568 L 646.999 -129.568 Z " fill="rgb(242,242,242)"/><rect x="644.996" y="-304.226" width="32.312" height="14.762" transform="matrix(-0.984,0.179,-0.179,-0.984,1258.443,-707.312)" fill="rgb(63,61,86)"/><path d=" M 597.605 -217.678 C 594.539 -215.431 590.868 -211.884 588.802 -208.375 L 589.547 -216.473 L 586.23 -223.967 C 589.324 -221.229 593.97 -218.891 597.605 -217.678 Z " fill="rgb(63,61,86)"/><rect x="446.393" y="-117.051" width="32.312" height="14.762" transform="matrix(0.984,-0.179,0.179,0.984,27.124,81.076)" fill="rgb(63,61,86)"/><rect x="638.587" y="-268.692" width="57.274" height="10.799" transform="matrix(0.984,-0.179,0.179,0.984,57.95,115.253)" fill="rgb(108,99,255)"/><rect x="642.605" y="-246.625" width="57.274" height="10.799" transform="matrix(0.984,-0.179,0.179,0.984,54.063,116.329)" fill="rgb(108,99,255)"/><g><g opacity="0.1"><path d=" M 645.539 194.714 C 671.108 183.304 702.411 178.778 736.928 178.076 C 720.344 125.594 710.454 73.033 708.22 20.396 L 616.831 37.034 C 619.574 90.403 629.296 143.803 645.539 194.714 L 645.539 194.714 Z " fill="rgb(0,0,0)"/></g><path d=" M 640.091 188.106 C 665.66 176.696 696.963 172.171 731.48 171.468 C 714.897 118.986 705.006 66.426 702.773 13.789 L 611.384 30.427 C 614.126 83.795 623.848 137.196 640.091 188.106 L 640.091 188.106 Z " fill="rgb(242,242,242)"/><rect x="638.076" y="13.451" width="32.312" height="14.762" transform="matrix(-0.984,0.179,-0.179,-0.984,1301.615,-75.857)" fill="rgb(63,61,86)"/><mask id="_mask_e51ektECq66yKwZJ3nhJ8oMbvh8tErPv" x="-200%" y="-200%" width="400%" height="400%"><rect x="-200%" y="-200%" width="400%" height="400%" style="fill:white;"/><path d=" M 514.696 -54.984 C 514.696 -54.984 524.726 -201.039 603.471 -216.65" fill="black" stroke="none"/></mask><path d=" M 514.696 -54.984 C 514.696 -54.984 524.726 -201.039 603.471 -216.65" fill="none" mask="url(#_mask_e51ektECq66yKwZJ3nhJ8oMbvh8tErPv)" vector-effect="non-scaling-stroke" stroke-width="2.15" stroke="rgb(63,61,86)" stroke-linejoin="miter" stroke-linecap="butt" stroke-miterlimit="10"/><path d=" M 514.696 -54.984 C 514.696 -54.984 524.726 -201.039 603.471 -216.65" fill="none"/><mask id="_mask_1zsvSDU5CHu0VK8K9ZgXthR4ZmcPgmpX" x="-200%" y="-200%" width="400%" height="400%"><rect x="-200%" y="-200%" width="400%" height="400%" style="fill:white;"/><path d=" M 527.302 -2.395 C 527.302 -2.395 544.548 110.517 593.42 117.418" fill="black" stroke="none"/></mask><path d=" M 527.302 -2.395 C 527.302 -2.395 544.548 110.517 593.42 117.418" fill="none" mask="url(#_mask_1zsvSDU5CHu0VK8K9ZgXthR4ZmcPgmpX)" vector-effect="non-scaling-stroke" stroke-width="2.15" stroke="rgb(63,61,86)" stroke-linejoin="miter" stroke-linecap="butt" stroke-miterlimit="10"/><path d=" M 527.302 -2.395 C 527.302 -2.395 544.548 110.517 593.42 117.418" fill="none"/><path d=" M 600.703 117.654 C 597.383 119.238 593.322 122.012 590.882 125.031 L 592.462 117.288 L 589.891 109.363 C 592.727 112.613 597.164 115.765 600.703 117.654 Z " fill="rgb(63,61,86)"/><mask id="_mask_NJJumWnJlmkBUcRcVFGplthKMU80gg9A" x="-200%" y="-200%" width="400%" height="400%"><rect x="-200%" y="-200%" width="400%" height="400%" style="fill:white;"/><path d=" M 529.998 -40.883 C 529.998 -40.883 768.699 -144.106 824.499 -80.331" fill="black" stroke="none"/></mask><path d=" M 529.998 -40.883 C 529.998 -40.883 768.699 -144.106 824.499 -80.331" fill="none" mask="url(#_mask_NJJumWnJlmkBUcRcVFGplthKMU80gg9A)" vector-effect="non-scaling-stroke" stroke-width="2.15" stroke="rgb(63,61,86)" stroke-linejoin="miter" stroke-linecap="butt" stroke-miterlimit="10"/><path d=" M 529.998 -40.883 C 529.998 -40.883 768.699 -144.106 824.499 -80.331" fill="none"/><path d=" M 829.841 -72.674 C 826.434 -75.068 821.811 -77.511 818.306 -78.173 L 823.715 -81.176 L 826.027 -88.462 C 826.455 -83.676 828.153 -77.349 829.841 -72.674 Z " fill="rgb(63,61,86)"/><g style="opacity:0.1;"><g opacity="0.1"><path d=" M 541.412 223.617 C 538.702 208.731 666.558 172.968 826.751 143.803 C 986.945 114.638 1119.201 103.045 1121.912 117.931 C 1124.622 132.816 996.765 168.579 836.572 197.744 C 676.379 226.909 544.122 238.502 541.412 223.617 Z " fill="rgb(108,99,255)"/></g></g><rect x="634.485" y="63.729" width="57.274" height="10.799" transform="matrix(0.984,-0.179,0.179,0.984,-1.658,119.894)" fill="rgb(108,99,255)"/><rect x="638.503" y="85.796" width="57.274" height="10.799" transform="matrix(0.984,-0.179,0.179,0.984,-5.546,120.97)" fill="rgb(108,99,255)"/><path d=" M 848.427 181.91 C 870.361 164.508 899.561 152.351 932.822 143.1 C 903.726 96.379 881.094 47.921 865.86 -2.513 L 781.465 36.297 C 797.373 87.313 820.051 136.627 848.427 181.91 L 848.427 181.91 Z " fill="rgb(242,242,242)"/><rect x="804.433" y="8.982" width="32.312" height="14.762" transform="matrix(-0.909,0.418,-0.418,-0.909,1572.961,-311.615)" fill="rgb(63,61,86)"/><rect x="812.556" y="55.54" width="57.274" height="10.799" transform="matrix(0.909,-0.418,0.418,0.909,51.477,357.026)" fill="rgb(108,99,255)"/><rect x="821.927" y="75.918" width="57.274" height="10.799" transform="matrix(0.909,-0.418,0.418,0.909,43.82,362.805)" fill="rgb(108,99,255)"/><rect x="453.275" y="-78.911" width="57.274" height="10.799" transform="matrix(0.984,-0.179,0.179,0.984,20.961,85.129)" fill="rgb(108,99,255)"/><path d=" M 523.949 332.058 L 533.51 320.818 C 531.333 317.481 528.802 314.6 526.021 312.294 L 506.497 325.33 L 520.632 308.707 C 511.105 303.849 500.985 305.938 494.011 314.202 C 487.038 322.467 484.245 335.68 486.664 348.962 C 490.445 369.729 502.662 368.248 517.576 365.532 C 532.491 362.817 544.445 359.898 540.664 339.13 C 539.713 333.875 537.977 328.823 535.569 324.302 L 523.949 332.058 Z " fill="rgb(108,99,255)"/><g opacity="0.1"><path d=" M 530.483 351.724 C 528.984 350.272 527.381 349.053 525.711 348.093 C 523.324 346.577 520.867 345.04 518.343 344.832 C 516.129 344.661 514.038 345.532 511.841 345.754 C 508.047 346.113 504.122 344.51 500.828 341.257 C 498.893 339.321 497.194 336.853 495.04 335.48 C 492.719 334.02 490.123 334.087 487.847 334.974 C 487.187 335.235 486.544 335.552 485.922 335.924 C 485.607 340.206 485.852 344.619 486.647 348.965 C 490.428 369.732 502.644 368.251 517.558 365.536 C 524.796 364.218 531.332 362.851 535.716 359.418 L 534.548 357.495 C 533.36 355.37 531.994 353.431 530.483 351.724 Z " fill="rgb(0,0,0)"/></g><g><g style="opacity:0.5;"><g opacity="0.5"><linearGradient id="_lgradient_66" x1="0.5000000000000001" y1="1" x2="0.5000000000000002" y2="0" gradientTransform="matrix(255.463,0,0,167.681,281.925,87.905)" gradientUnits="userSpaceOnUse"><stop offset="0%" stop-opacity="0.25" style="stop-color:rgb(128,128,128)"/><stop offset="54%" stop-opacity="0.12" style="stop-color:rgb(128,128,128)"/><stop offset="100%" stop-opacity="0.1" style="stop-color:rgb(128,128,128)"/></linearGradient><rect x="281.925" y="87.905" width="255.463" height="167.681" transform="matrix(1,0,0,1,0,0)" fill="url(#_lgradient_66)"/></g></g><rect x="284.565" y="90.408" width="250.84" height="163.299" transform="matrix(1,0,0,1,0,0)" fill="rgb(247,247,247)"/><g style="opacity:0.5;"><g opacity="0.5"><ellipse vector-effect="non-scaling-stroke" cx="325.3278139599235" cy="145.78068069069053" rx="4.62310454250985" ry="4.381865553622788" fill="rgb(108,99,255)"/></g><g opacity="0.5"><ellipse vector-effect="non-scaling-stroke" cx="325.3278139599235" cy="172.06034278728634" rx="4.62310454250985" ry="4.381865553622788" fill="rgb(108,99,255)"/></g><g opacity="0.5"><ellipse vector-effect="non-scaling-stroke" cx="325.3278139599235" cy="198.33423927131145" rx="4.62310454250985" ry="4.381865553622788" fill="rgb(108,99,255)"/></g></g><rect x="359.326" y="143.278" width="139.946" height="5.005" transform="matrix(1,0,0,1,0,0)" fill="rgb(224,224,224)"/><rect x="359.326" y="169.552" width="139.946" height="5.005" transform="matrix(1,0,0,1,0,0)" fill="rgb(224,224,224)"/><rect x="359.326" y="195.832" width="139.946" height="5.005" transform="matrix(1,0,0,1,0,0)" fill="rgb(224,224,224)"/><g style="opacity:0.5;"><g opacity="0.5"><linearGradient id="_lgradient_67" x1="0" y1="0.5" x2="6.123233995736766e-17" y2="-0.5" gradientTransform="matrix(255.463,0,0,167.681,371.042,156.101)" gradientUnits="userSpaceOnUse"><stop offset="0%" stop-opacity="0.1" style="stop-color:rgb(128,128,128)"/></linearGradient><rect x="371.042" y="156.101" width="255.463" height="167.681" transform="matrix(1,0,0,1,0,0)" fill="url(#_lgradient_67)"/></g></g><rect x="373.682" y="158.603" width="250.84" height="163.299" transform="matrix(1,0,0,1,0,0)" fill="rgb(247,247,247)"/><g style="opacity:0.5;"><g opacity="0.5"><ellipse vector-effect="non-scaling-stroke" cx="414.444237049094" cy="213.97634617523073" rx="4.62310454250985" ry="4.381865553622788" fill="rgb(108,99,255)"/></g><g opacity="0.5"><ellipse vector-effect="non-scaling-stroke" cx="414.444237049094" cy="240.2560082718264" rx="4.62310454250985" ry="4.381865553622788" fill="rgb(108,99,255)"/></g><g opacity="0.5"><ellipse vector-effect="non-scaling-stroke" cx="414.444237049094" cy="266.5356703684222" rx="4.62310454250985" ry="4.381865553622788" fill="rgb(108,99,255)"/></g></g><rect x="448.436" y="211.474" width="139.946" height="5.005" transform="matrix(1,0,0,1,0,0)" fill="rgb(224,224,224)"/><rect x="448.436" y="237.754" width="139.946" height="5.005" transform="matrix(1,0,0,1,0,0)" fill="rgb(224,224,224)"/><rect x="448.436" y="264.028" width="139.946" height="5.005" transform="matrix(1,0,0,1,0,0)" fill="rgb(224,224,224)"/><g style="opacity:0.5;"><g opacity="0.5"><linearGradient id="_lgradient_68" x1="0" y1="0.5" x2="6.123233995736766e-17" y2="-0.5" gradientTransform="matrix(255.463,0,0,167.681,460.158,224.303)" gradientUnits="userSpaceOnUse"><stop offset="0%" stop-opacity="0.1" style="stop-color:rgb(128,128,128)"/></linearGradient><rect x="460.158" y="224.303" width="255.463" height="167.681" transform="matrix(1,0,0,1,0,0)" fill="url(#_lgradient_68)"/></g></g><rect x="462.798" y="226.805" width="250.84" height="163.299" transform="matrix(1,0,0,1,0,0)" fill="rgb(238,238,238)"/><ellipse vector-effect="non-scaling-stroke" cx="503.56066013826404" cy="282.1720116597709" rx="4.62310454250985" ry="4.381865553622788" fill="rgb(108,99,255)"/><ellipse vector-effect="non-scaling-stroke" cx="503.56066013826404" cy="308.45167375636646" rx="4.62310454250985" ry="4.381865553622788" fill="rgb(108,99,255)"/><ellipse vector-effect="non-scaling-stroke" cx="503.56066013826404" cy="334.7313358529625" rx="4.62310454250985" ry="4.381865553622788" fill="rgb(108,99,255)"/><rect x="537.553" y="279.67" width="139.946" height="5.005" transform="matrix(1,0,0,1,0,0)" fill="rgb(223,223,223)"/><rect x="537.553" y="305.949" width="139.946" height="5.005" transform="matrix(1,0,0,1,0,0)" fill="rgb(223,223,223)"/><rect x="537.553" y="332.229" width="139.946" height="5.005" transform="matrix(1,0,0,1,0,0)" fill="rgb(223,223,223)"/><g style="opacity:0.5;"><g opacity="0.5"><linearGradient id="_lgradient_69" x1="0" y1="0.5" x2="6.123233995736766e-17" y2="-0.5" gradientTransform="matrix(174.243,0,0,234.719,661.683,142.96)" gradientUnits="userSpaceOnUse"><stop offset="0%" stop-opacity="0.1" style="stop-color:rgb(128,128,128)"/></linearGradient><path d=" M 830.682 222.071 C 828.857 221.962 826.977 220.768 826.795 219.05 C 826.576 216.998 828.62 215.493 829.915 213.815 C 832.178 210.828 831.904 206.533 829.861 203.437 C 827.817 200.341 824.276 198.248 820.56 197.21 C 817.476 196.339 813.868 195.855 812.043 193.307 C 809.16 189.167 813.619 183.972 814.002 179.025 C 814.367 174.315 810.255 169.696 805.291 169.224 C 802.42 168.964 799.05 169.8 796.97 167.898 C 796.399 167.34 795.963 166.671 795.692 165.937 C 794.354 162.645 794.98 158.978 795.151 155.455 C 795.321 151.933 794.81 147.96 791.945 145.717 C 790.29 144.408 788.101 143.895 785.978 143.567 C 779.536 142.569 772.936 142.909 766.475 143.809 C 757.479 145.06 748.099 147.712 742.143 154.222 C 736.188 160.731 735.409 172.032 742.599 177.284 C 741.991 176.823 742.259 175.802 743.129 174.58 C 743.129 174.695 743.129 174.805 743.129 174.92 C 743.122 182.186 747.907 188.682 755.106 191.179 L 755.106 192.396 C 753.797 192.698 752.548 193.198 751.408 193.877 C 739.157 196.743 714.654 211.053 714.654 211.053 L 678.673 216.819 C 678.673 216.819 661.032 219.39 661.701 221.967 C 661.701 221.967 678.673 222.613 678.673 222.613 L 715.056 222.613 C 718.357 222.609 721.604 221.816 724.496 220.307 L 744.388 209.929 C 744.291 211.428 744.242 212.973 744.23 214.541 C 741.085 216.675 738.007 221.333 744.473 230.927 L 744.522 230.662 C 744.522 230.749 744.522 230.841 744.522 230.927 L 737.289 262.534 C 735.087 264.08 733.578 265.504 734.102 266.265 C 734.406 266.703 735.221 266.784 736.334 266.639 L 726.321 310.458 L 754.376 342.573 L 759.06 367.999 L 754.65 372.006 L 738.287 374.889 C 737.53 375.02 737.005 375.677 737.076 376.403 C 737.148 377.128 737.792 377.682 738.56 377.679 L 774.414 377.679 L 774.414 371.274 L 774.742 371.274 L 774.134 363.582 L 785.467 356.56 L 781.75 351.175 L 781.221 351.504 L 772.169 339.517 L 770.618 320.629 L 787.164 263.814 L 787.164 263.814 L 787.164 263.751 L 787.164 263.751 L 783.1 247.901 L 790.224 244.476 C 794.861 242.243 797.058 237.115 795.376 232.449 C 794.287 229.457 792.943 225.928 791.373 222.342 C 793.725 224.567 796.446 226.411 799.427 227.802 C 811.216 233.055 825.353 228.05 835.925 220.843 C 834.253 221.495 832.501 222.187 830.682 222.071 Z  M 779.901 235.407 L 777.376 225.571 L 780.807 233.885 C 780.351 234.64 780.01 235.205 779.895 235.413 L 779.901 235.407 Z  M 765.812 192.488 L 765.812 191.75 C 768.158 191.207 770.367 190.227 772.309 188.867 C 772.141 191.458 772.406 194.057 773.094 196.57 C 771.494 194.604 769.182 193.243 765.806 192.499 L 765.812 192.488 Z  M 746.76 305.828 L 761.262 266.086 L 752.369 313.266 L 746.76 305.828 Z " fill="url(#_lgradient_69)"/></g></g><path d=" M 780.825 348.667 L 768.118 356.543 L 753.47 369.855 C 752.972 370.31 752.885 371.036 753.263 371.585 L 753.263 371.585 C 753.472 371.889 753.8 372.101 754.174 372.176 C 754.548 372.25 754.938 372.181 755.258 371.983 L 784.457 353.902 L 780.825 348.667 Z " fill="rgb(51,51,51)"/><path d=" M 754.565 206.158 L 725.19 221.443 C 722.377 222.907 719.22 223.674 716.011 223.674 L 680.632 223.674 L 680.632 218.035 L 715.615 212.402 C 715.615 212.402 755.228 189.265 757.844 196.772 C 757.844 196.772 754.565 206.158 754.565 206.158 Z " fill="rgb(108,99,255)"/><path d=" M 786.118 263.722 L 737.362 263.722 L 744.662 231.815 C 744.662 214.449 741.012 193.826 759.34 193.826 L 759.34 193.826 C 777.662 193.826 775.685 205.691 775.685 223.051 L 786.118 263.722 Z " fill="rgb(108,99,255)"/><path d=" M 754.948 181.7 L 765.338 181.7 L 765.338 195.348 C 765.338 196.551 764.833 197.705 763.936 198.556 C 763.038 199.407 761.82 199.885 760.551 199.885 L 759.735 199.885 C 758.466 199.885 757.248 199.407 756.35 198.556 C 755.452 197.705 754.948 196.551 754.948 195.348 L 754.948 181.7 Z " fill="rgb(253,165,125)"/><path d=" M 737.362 263.653 L 726.972 309.109 L 769.334 357.598 L 780.521 349.266 L 746.815 304.566 L 761.743 263.653 L 737.362 263.653 L 737.362 263.653 Z " fill="rgb(224,224,224)"/><g opacity="0.04"><path d=" M 737.362 263.653 L 726.972 309.109 L 769.334 357.598 L 780.521 349.266 L 746.815 304.566 L 761.743 263.653 L 737.362 263.653 L 737.362 263.653 Z " fill="rgb(0,0,0)"/></g><path d=" M 761.341 263.653 L 750.605 320.652 L 759.358 368.201 L 774.024 368.201 L 770.028 318.962 L 786.118 263.653 L 761.341 263.653 L 761.341 263.653 Z " fill="rgb(224,224,224)"/><g opacity="0.05"><path d=" M 778.988 236.191 L 746.645 258.101 L 749.285 262.482 L 787.097 244.303 C 791.62 242.132 793.759 237.131 792.109 232.588 C 787.602 220.192 778.988 236.191 778.988 236.191 Z " fill="rgb(0,0,0)"/></g><g opacity="0.05"><path d=" M 770.289 210.955 L 780.959 236.814 L 747.965 254.935 L 751.268 263.071 L 789.08 244.892 C 793.603 242.72 795.742 237.72 794.092 233.176 C 789.585 220.797 780.272 198.922 772.37 204.065 C 770.072 205.625 769.21 208.479 770.289 210.955 Z " fill="rgb(0,0,0)"/></g><path d=" M 769.632 209.704 L 780.308 235.569 L 747.965 256.215 L 749.936 261.854 L 788.405 243.675 C 792.927 241.504 795.067 236.503 793.417 231.959 C 788.91 219.581 779.596 197.706 771.695 202.849 C 769.421 204.409 768.569 207.242 769.632 209.704 Z " fill="rgb(108,99,255)"/><path d=" M 773.708 368.206 L 758.501 368.206 L 738.554 371.752 C 737.873 371.874 737.38 372.439 737.38 373.096 L 737.38 373.096 C 737.38 373.458 737.532 373.806 737.803 374.062 C 738.073 374.318 738.44 374.462 738.822 374.462 L 773.684 374.462 L 773.708 368.206 Z " fill="rgb(51,51,51)"/><g opacity="0.05"><path d=" M 771.068 211.163 C 771.068 211.163 778.976 221.172 777.668 228.679" fill="rgb(0,0,0)"/></g><g opacity="0.05"><path d=" M 754.948 194.396 C 758.278 195.549 761.896 195.734 765.338 194.927 L 765.338 182.952 L 754.948 182.952 L 754.948 194.396 Z " fill="rgb(0,0,0)"/></g><ellipse vector-effect="non-scaling-stroke" cx="761.0615001237704" cy="177.31858145163403" rx="17.76245429490632" ry="16.835588706024453" fill="rgb(253,165,125)"/><path d=" M 680.632 218.035 C 680.632 218.035 663.471 220.538 664.128 223.04 C 664.128 223.04 680.632 223.668 680.632 223.668 L 680.632 218.035 Z " fill="rgb(253,165,125)"/><path d=" M 748.403 256.331 C 748.403 256.331 733.043 264.01 734.533 266.172 C 734.533 266.172 750.349 261.652 750.349 261.652 L 748.403 256.331 Z " fill="rgb(253,165,125)"/><path d=" M 747.965 214.293 C 747.965 214.293 734.661 217.049 744.613 231.809" fill="rgb(108,99,255)"/><g opacity="0.05"><path d=" M 763.805 215.545 C 763.805 215.545 750.501 218.301 760.453 233.061" fill="rgb(0,0,0)"/></g><path d=" M 764.468 215.545 C 764.468 215.545 751.164 218.301 761.116 233.061" fill="rgb(108,99,255)"/><path d=" M 774.268 182.721 C 770.758 188.112 770.971 195.111 773.294 201.05 C 775.618 206.988 779.822 212.074 784.08 216.957 C 788.07 221.535 792.347 226.153 798.016 228.679 C 809.482 233.787 823.224 228.921 833.51 221.916 C 831.88 222.573 830.171 223.247 828.407 223.138 C 826.643 223.028 824.806 221.869 824.623 220.203 C 824.41 218.208 826.448 216.744 827.665 215.112 C 829.867 212.229 829.599 208.032 827.616 204.994 C 825.633 201.955 822.19 199.966 818.57 198.94 C 815.572 198.092 812.043 197.619 810.316 195.146 C 807.518 191.11 811.849 186.071 812.22 181.262 C 812.579 176.684 808.57 172.193 803.752 171.755 C 800.96 171.501 797.669 172.331 795.662 170.463 C 795.115 169.918 794.7 169.267 794.445 168.555 C 793.143 165.355 793.752 161.786 793.916 158.361 C 794.08 154.936 793.581 151.085 790.801 148.894 C 789.189 147.626 787.066 147.124 784.998 146.807 C 778.733 145.838 772.315 146.167 766.037 147.043 C 757.284 148.26 748.172 150.837 742.374 157.168 C 736.577 163.498 735.823 174.465 742.818 179.619 C 740.343 177.803 752.411 167.108 758.081 170.394 C 764.535 174.107 764.669 183.078 774.268 182.721 Z " fill="rgb(51,51,51)"/></g><linearGradient id="_lgradient_70" x1="0.49999999999999994" y1="0.9999999999999999" x2="0.5" y2="0" gradientTransform="matrix(450.928,0,0,248.451,45.752,40)" gradientUnits="userSpaceOnUse"><stop offset="0%" stop-opacity="0.25" style="stop-color:rgb(128,128,128)"/><stop offset="54%" stop-opacity="0.12" style="stop-color:rgb(128,128,128)"/><stop offset="100%" stop-opacity="0.1" style="stop-color:rgb(128,128,128)"/></linearGradient><rect x="45.752" y="40" width="450.928" height="248.451" transform="matrix(1,0,0,1,0,0)" fill="url(#_lgradient_70)"/><rect x="49.697" y="69.354" width="441.91" height="211.582" transform="matrix(1,0,0,1,0,0)" fill="rgb(255,255,255)"/><rect x="49.697" y="45.166" width="441.91" height="24.188" transform="matrix(1,0,0,1,0,0)" fill="rgb(108,99,255)"/><linearGradient id="_lgradient_71" x1="0" y1="0.5" x2="6.123233995736766e-17" y2="-0.5" gradientTransform="matrix(430.636,0,0,184.577,55.898,84.618)" gradientUnits="userSpaceOnUse"><stop offset="0%" stop-opacity="0.1" style="stop-color:rgb(128,128,128)"/></linearGradient><rect x="55.898" y="84.618" width="430.636" height="184.577" transform="matrix(1,0,0,1,0,0)" fill="url(#_lgradient_71)"/><g opacity="0.5"><rect x="61.252" y="87.905" width="51.857" height="34.52" transform="matrix(1,0,0,1,0,0)" fill="rgb(108,99,255)"/></g><rect x="113.673" y="87.905" width="51.857" height="34.52" transform="matrix(1,0,0,1,0,0)" fill="rgb(255,255,255)"/><g opacity="0.2"><rect x="166.093" y="87.905" width="51.857" height="34.52" transform="matrix(1,0,0,1,0,0)" fill="rgb(108,99,255)"/></g><rect x="218.514" y="87.905" width="51.857" height="34.52" transform="matrix(1,0,0,1,0,0)" fill="rgb(255,255,255)"/><rect x="270.934" y="87.905" width="51.857" height="34.52" transform="matrix(1,0,0,1,0,0)" fill="rgb(255,255,255)"/><g opacity="0.5"><rect x="323.354" y="87.905" width="51.857" height="34.52" transform="matrix(1,0,0,1,0,0)" fill="rgb(108,99,255)"/></g><rect x="375.775" y="87.905" width="51.857" height="34.52" transform="matrix(1,0,0,1,0,0)" fill="rgb(255,255,255)"/><g opacity="0.2"><rect x="428.195" y="87.905" width="51.857" height="34.52" transform="matrix(1,0,0,1,0,0)" fill="rgb(108,99,255)"/></g><g opacity="0.2"><rect x="61.252" y="123.13" width="51.857" height="34.52" transform="matrix(1,0,0,1,0,0)" fill="rgb(108,99,255)"/></g><g opacity="0.2"><rect x="113.673" y="123.13" width="51.857" height="34.52" transform="matrix(1,0,0,1,0,0)" fill="rgb(108,99,255)"/></g><rect x="166.093" y="123.13" width="51.857" height="34.52" transform="matrix(1,0,0,1,0,0)" fill="rgb(255,255,255)"/><g opacity="0.5"><rect x="218.514" y="123.13" width="51.857" height="34.52" transform="matrix(1,0,0,1,0,0)" fill="rgb(108,99,255)"/></g><rect x="270.934" y="123.13" width="51.857" height="34.52" transform="matrix(1,0,0,1,0,0)" fill="rgb(255,255,255)"/><g opacity="0.2"><rect x="323.354" y="123.13" width="51.857" height="34.52" transform="matrix(1,0,0,1,0,0)" fill="rgb(108,99,255)"/></g><g opacity="0.5"><rect x="375.775" y="123.13" width="51.857" height="34.52" transform="matrix(1,0,0,1,0,0)" fill="rgb(108,99,255)"/></g><rect x="428.195" y="123.13" width="51.857" height="34.52" transform="matrix(1,0,0,1,0,0)" fill="rgb(255,255,255)"/><rect x="61.252" y="157.885" width="51.857" height="34.52" transform="matrix(1,0,0,1,0,0)" fill="rgb(255,255,255)"/><rect x="113.673" y="157.885" width="51.857" height="34.52" transform="matrix(1,0,0,1,0,0)" fill="rgb(255,255,255)"/><g opacity="0.2"><rect x="166.093" y="157.885" width="51.857" height="34.52" transform="matrix(1,0,0,1,0,0)" fill="rgb(108,99,255)"/></g><rect x="218.514" y="157.885" width="51.857" height="34.52" transform="matrix(1,0,0,1,0,0)" fill="rgb(255,255,255)"/><g opacity="0.2"><rect x="270.934" y="157.885" width="51.857" height="34.52" transform="matrix(1,0,0,1,0,0)" fill="rgb(108,99,255)"/></g><rect x="323.354" y="157.885" width="51.857" height="34.52" transform="matrix(1,0,0,1,0,0)" fill="rgb(255,255,255)"/><rect x="375.775" y="157.885" width="51.857" height="34.52" transform="matrix(1,0,0,1,0,0)" fill="rgb(255,255,255)"/><g opacity="0.2"><rect x="428.195" y="157.885" width="51.857" height="34.52" transform="matrix(1,0,0,1,0,0)" fill="rgb(108,99,255)"/></g><rect x="61.252" y="192.64" width="51.857" height="34.52" transform="matrix(1,0,0,1,0,0)" fill="rgb(255,255,255)"/><g opacity="0.5"><rect x="113.673" y="192.64" width="51.857" height="34.52" transform="matrix(1,0,0,1,0,0)" fill="rgb(108,99,255)"/></g><g opacity="0.5"><rect x="166.093" y="192.64" width="51.857" height="34.52" transform="matrix(1,0,0,1,0,0)" fill="rgb(108,99,255)"/></g><rect x="218.514" y="192.64" width="51.857" height="34.52" transform="matrix(1,0,0,1,0,0)" fill="rgb(255,255,255)"/><rect x="270.934" y="192.64" width="51.857" height="34.52" transform="matrix(1,0,0,1,0,0)" fill="rgb(255,255,255)"/><g opacity="0.5"><rect x="323.354" y="192.64" width="51.857" height="34.52" transform="matrix(1,0,0,1,0,0)" fill="rgb(108,99,255)"/></g><rect x="375.775" y="192.64" width="51.857" height="34.52" transform="matrix(1,0,0,1,0,0)" fill="rgb(255,255,255)"/><g opacity="0.5"><rect x="428.195" y="192.64" width="51.857" height="34.52" transform="matrix(1,0,0,1,0,0)" fill="rgb(108,99,255)"/></g><g opacity="0.5"><rect x="61.252" y="227.865" width="51.857" height="34.52" transform="matrix(1,0,0,1,0,0)" fill="rgb(108,99,255)"/></g><g opacity="0.2"><rect x="113.673" y="227.865" width="51.857" height="34.52" transform="matrix(1,0,0,1,0,0)" fill="rgb(108,99,255)"/></g><rect x="166.093" y="227.865" width="51.857" height="34.52" transform="matrix(1,0,0,1,0,0)" fill="rgb(255,255,255)"/><g opacity="0.5"><rect x="218.514" y="227.865" width="51.857" height="34.52" transform="matrix(1,0,0,1,0,0)" fill="rgb(108,99,255)"/></g><g opacity="0.2"><rect x="270.934" y="227.865" width="51.857" height="34.52" transform="matrix(1,0,0,1,0,0)" fill="rgb(108,99,255)"/></g><rect x="323.354" y="227.865" width="51.857" height="34.52" transform="matrix(1,0,0,1,0,0)" fill="rgb(255,255,255)"/><g opacity="0.2"><rect x="375.775" y="227.865" width="51.857" height="34.52" transform="matrix(1,0,0,1,0,0)" fill="rgb(108,99,255)"/></g><rect x="428.195" y="227.865" width="51.857" height="34.52" transform="matrix(1,0,0,1,0,0)" fill="rgb(255,255,255)"/><rect x="65.48" y="161.173" width="15.782" height="13.151" transform="matrix(1,0,0,1,0,0)" fill="rgb(105,240,174)"/><rect x="222.177" y="91.663" width="15.782" height="13.151" transform="matrix(1,0,0,1,0,0)" fill="rgb(105,240,174)"/><rect x="220.486" y="161.173" width="15.782" height="13.151" transform="matrix(1,0,0,1,0,0)" fill="rgb(105,240,174)"/><rect x="274.034" y="194.519" width="15.782" height="13.151" transform="matrix(1,0,0,1,0,0)" fill="rgb(105,240,174)"/><rect x="378.311" y="161.173" width="15.782" height="13.151" transform="matrix(1,0,0,1,0,0)" fill="rgb(105,240,174)"/><linearGradient id="_lgradient_72" x1="0" y1="0.5" x2="6.123233995736766e-17" y2="-0.5" gradientTransform="matrix(193.392,0,0,161.141,25.68,188.859)" gradientUnits="userSpaceOnUse"><stop offset="0%" stop-opacity="0.1" style="stop-color:rgb(128,128,128)"/></linearGradient><ellipse vector-effect="non-scaling-stroke" cx="122.37575611944847" cy="269.4295886675251" rx="96.69588683716083" ry="80.5704113324748" fill="url(#_lgradient_72)"/><ellipse vector-effect="non-scaling-stroke" cx="122.37575611944855" cy="269.42958866752497" rx="94.08614066370677" ry="78.39587910006816" fill="rgb(108,99,255)"/><ellipse vector-effect="non-scaling-stroke" cx="122.37575611944851" cy="269.42958866752497" rx="76.44358013906012" ry="63.69547761533215" fill="rgb(255,255,255)"/><linearGradient id="_lgradient_73" x1="0" y1="0.5" x2="6.123233995736766e-17" y2="-0.5" gradientTransform="matrix(9.143,0,0,7.618,117.804,265.621)" gradientUnits="userSpaceOnUse"><stop offset="0%" stop-opacity="0.1" style="stop-color:rgb(128,128,128)"/></linearGradient><ellipse vector-effect="non-scaling-stroke" cx="122.37575611944857" cy="269.4295886675251" rx="4.571283254149662" ry="3.8089538671312653" fill="url(#_lgradient_73)"/><line x1="147.859" y1="220.435" x2="123.03" y2="269.43"/><linearGradient id="_lgradient_74" x1="0" y1="0.5" x2="6.123233995736766e-17" y2="1.5" gradientTransform="matrix(28.183,0,0,50.254,121.282,219.645)" gradientUnits="userSpaceOnUse"><stop offset="0%" stop-opacity="0.1" style="stop-color:rgb(128,128,128)"/></linearGradient><path d=" M 124.101 269.899 L 121.282 269.11 L 146.647 219.645 L 149.465 220.749 L 124.101 269.899 L 124.101 269.899 Z " fill="url(#_lgradient_74)"/><rect x="107.974" y="243.966" width="54.927" height="1.899" transform="matrix(0.452,-0.892,0.951,0.335,-158.804,283.751)" fill="rgb(33,150,243)"/><line x1="123.03" y1="269.974" x2="139.364" y2="295.017"/><linearGradient id="_lgradient_75" x1="0" y1="0.5" x2="6.123233995736766e-17" y2="1.5" gradientTransform="matrix(19.164,0,0,26.301,121.846,269.43)" gradientUnits="userSpaceOnUse"><stop offset="0%" stop-opacity="0.1" style="stop-color:rgb(128,128,128)"/></linearGradient><path d=" M 138.192 295.731 L 121.846 270.369 L 124.101 269.43 L 141.01 294.322 L 138.192 295.731 L 138.192 295.731 Z " fill="url(#_lgradient_75)"/><rect x="130.241" y="267.736" width="1.892" height="29.552" transform="matrix(0.911,-0.412,0.553,0.847,-144.464,97.201)" fill="rgb(33,150,243)"/><ellipse vector-effect="non-scaling-stroke" cx="193.59420731079365" cy="271.06401030224964" rx="1.9615370806955355" ry="1.6344216347246174" fill="rgb(108,99,255)"/><linearGradient id="_lgradient_76" x1="0" y1="0.5" x2="0.8660254037844384" y2="1.0000000000000004" gradientTransform="matrix(2.548,-3.677,4.413,2.123,57.55,240.861)" gradientUnits="userSpaceOnUse"><stop offset="100%" stop-opacity="0.25" style="stop-color:rgb(128,128,128)"/><stop offset="100%" stop-opacity="0.21921556335070289" style="stop-color:rgb(128,128,128)"/><stop offset="100%" stop-opacity="0.11744252372451994" style="stop-color:rgb(128,128,128)"/></linearGradient><path d=" M 59.757 241.922 C 58.539 241.336 58.121 240.037 58.824 239.022 C 59.527 238.007 61.087 237.659 62.304 238.245 C 63.522 238.831 63.94 240.13 63.237 241.145 C 62.534 242.16 60.974 242.508 59.757 241.922 Z " fill="url(#_lgradient_76)"/><linearGradient id="_lgradient_77" x1="0" y1="0.5" x2="0.5000000000000007" y2="-0.36602540378443826" gradientTransform="matrix(4.413,-2.123,2.548,3.677,58.202,299.734)" gradientUnits="userSpaceOnUse"><stop offset="0%" stop-opacity="0.1" style="stop-color:rgb(128,128,128)"/></linearGradient><path d=" M 59.476 301.572 C 58.773 300.557 59.191 299.258 60.409 298.672 C 61.626 298.086 63.186 298.435 63.889 299.449 C 64.592 300.464 64.174 301.763 62.956 302.349 C 61.739 302.935 60.179 302.587 59.476 301.572 Z " fill="url(#_lgradient_77)"/><linearGradient id="_lgradient_78" x1="0" y1="0.5" x2="0.4999999999999984" y2="-0.3660254037844396" gradientTransform="matrix(5.095,0,0,4.246,48.615,268.941)" gradientUnits="userSpaceOnUse"><stop offset="0%" stop-opacity="0.1" style="stop-color:rgb(128,128,128)"/></linearGradient><ellipse vector-effect="non-scaling-stroke" cx="51.162941528909755" cy="271.0640103022499" rx="2.547743564581566" ry="2.1228694795848924" fill="url(#_lgradient_78)"/><linearGradient id="_lgradient_79" x1="0" y1="0.5" x2="0.866025403784442" y2="0.9999999999999942" gradientTransform="matrix(4.413,-2.123,2.548,3.677,83.55,217.531)" gradientUnits="userSpaceOnUse"><stop offset="100%" stop-opacity="0.25" style="stop-color:rgb(128,128,128)"/><stop offset="100%" stop-opacity="0.21924961693106682" style="stop-color:rgb(128,128,128)"/><stop offset="100%" stop-opacity="0.11744535279119633" style="stop-color:rgb(128,128,128)"/></linearGradient><path d=" M 84.824 219.369 C 84.121 218.355 84.539 217.055 85.756 216.47 C 86.974 215.884 88.534 216.232 89.237 217.247 C 89.94 218.261 89.522 219.561 88.304 220.146 C 87.086 220.732 85.527 220.384 84.824 219.369 Z " fill="url(#_lgradient_79)"/><linearGradient id="_lgradient_80" x1="0" y1="0.5" x2="0.8660254037844372" y2="1.0000000000000027" gradientTransform="matrix(4.413,-2.123,2.548,3.677,118.832,209.912)" gradientUnits="userSpaceOnUse"><stop offset="100%" stop-opacity="0.25" style="stop-color:rgb(128,128,128)"/><stop offset="100%" stop-opacity="0.21924961693106762" style="stop-color:rgb(128,128,128)"/><stop offset="100%" stop-opacity="0.11744535279119636" style="stop-color:rgb(128,128,128)"/></linearGradient><path d=" M 120.106 211.751 C 119.403 210.736 119.821 209.437 121.039 208.851 C 122.256 208.265 123.816 208.613 124.519 209.628 C 125.222 210.642 124.804 211.942 123.586 212.528 C 122.369 213.113 120.809 212.765 120.106 211.751 Z " fill="url(#_lgradient_80)"/><linearGradient id="_lgradient_81" x1="0" y1="0.5" x2="0.8660254037844439" y2="0.9999999999999909" gradientTransform="matrix(4.413,-2.123,2.548,3.677,154.113,217.533)" gradientUnits="userSpaceOnUse"><stop offset="100%" stop-opacity="0.25" style="stop-color:rgb(128,128,128)"/><stop offset="100%" stop-opacity="0.21921556335070413" style="stop-color:rgb(128,128,128)"/><stop offset="100%" stop-opacity="0.11744252372452002" style="stop-color:rgb(128,128,128)"/></linearGradient><path d=" M 155.387 219.372 C 154.684 218.357 155.102 217.058 156.32 216.472 C 157.538 215.886 159.097 216.234 159.8 217.249 C 160.503 218.264 160.085 219.563 158.868 220.149 C 157.65 220.735 156.09 220.386 155.387 219.372 Z " fill="url(#_lgradient_81)"/><linearGradient id="_lgradient_82" x1="0" y1="0.5" x2="0.8660254037844372" y2="1.0000000000000027" gradientTransform="matrix(4.413,-2.123,2.548,3.677,180.247,239.31)" gradientUnits="userSpaceOnUse"><stop offset="100%" stop-opacity="0.25" style="stop-color:rgb(128,128,128)"/><stop offset="100%" stop-opacity="0.21924961693106682" style="stop-color:rgb(128,128,128)"/><stop offset="100%" stop-opacity="0.11744535279119633" style="stop-color:rgb(128,128,128)"/></linearGradient><path d=" M 181.521 241.149 C 180.818 240.134 181.236 238.835 182.453 238.249 C 183.671 237.663 185.231 238.011 185.934 239.026 C 186.637 240.041 186.219 241.34 185.001 241.926 C 183.783 242.512 182.224 242.164 181.521 241.149 Z " fill="url(#_lgradient_82)"/><linearGradient id="_lgradient_83" x1="0" y1="0.5" x2="0.8660254037844372" y2="1.0000000000000027" gradientTransform="matrix(4.413,-2.123,2.548,3.677,179.596,299.738)" gradientUnits="userSpaceOnUse"><stop offset="100%" stop-opacity="0.25" style="stop-color:rgb(128,128,128)"/><stop offset="100%" stop-opacity="0.21924961693106682" style="stop-color:rgb(128,128,128)"/><stop offset="100%" stop-opacity="0.11744535279119633" style="stop-color:rgb(128,128,128)"/></linearGradient><path d=" M 180.87 301.577 C 180.167 300.562 180.585 299.263 181.802 298.677 C 183.02 298.091 184.58 298.439 185.283 299.454 C 185.986 300.469 185.568 301.768 184.35 302.354 C 183.132 302.94 181.573 302.592 180.87 301.577 Z " fill="url(#_lgradient_83)"/><linearGradient id="_lgradient_84" x1="0" y1="0.5" x2="0.8660254037844384" y2="1.0000000000000004" gradientTransform="matrix(4.413,-2.123,2.548,3.677,152.806,320.968)" gradientUnits="userSpaceOnUse"><stop offset="100%" stop-opacity="0.25" style="stop-color:rgb(128,128,128)"/><stop offset="100%" stop-opacity="0.21921556335070247" style="stop-color:rgb(128,128,128)"/><stop offset="100%" stop-opacity="0.11744252372451988" style="stop-color:rgb(128,128,128)"/></linearGradient><path d=" M 154.08 322.807 C 153.377 321.792 153.795 320.493 155.013 319.907 C 156.23 319.321 157.79 319.669 158.493 320.684 C 159.196 321.699 158.778 322.998 157.56 323.584 C 156.343 324.17 154.783 323.822 154.08 322.807 Z " fill="url(#_lgradient_84)"/><linearGradient id="_lgradient_85" x1="0" y1="0.5" x2="0.8660254037844413" y2="0.9999999999999956" gradientTransform="matrix(4.413,-2.123,2.548,3.677,118.829,327.504)" gradientUnits="userSpaceOnUse"><stop offset="100%" stop-opacity="0.25" style="stop-color:rgb(128,128,128)"/><stop offset="100%" stop-opacity="0.21924961693106682" style="stop-color:rgb(128,128,128)"/><stop offset="100%" stop-opacity="0.1174453527911963" style="stop-color:rgb(128,128,128)"/></linearGradient><path d=" M 120.103 329.343 C 119.4 328.328 119.818 327.029 121.036 326.443 C 122.253 325.857 123.813 326.205 124.516 327.22 C 125.219 328.235 124.801 329.534 123.583 330.12 C 122.366 330.706 120.806 330.358 120.103 329.343 Z " fill="url(#_lgradient_85)"/><linearGradient id="_lgradient_86" x1="0" y1="0.5" x2="0.8660254037844431" y2="0.9999999999999922" gradientTransform="matrix(4.413,-2.123,2.548,3.677,84.857,320.971)" gradientUnits="userSpaceOnUse"><stop offset="100%" stop-opacity="0.25" style="stop-color:rgb(128,128,128)"/><stop offset="100%" stop-opacity="0.21921556335070247" style="stop-color:rgb(128,128,128)"/><stop offset="100%" stop-opacity="0.11744252372451991" style="stop-color:rgb(128,128,128)"/></linearGradient><path d=" M 86.131 322.809 C 85.428 321.795 85.846 320.495 87.064 319.909 C 88.281 319.324 89.841 319.672 90.544 320.686 C 91.247 321.701 90.829 323 89.611 323.586 C 88.394 324.172 86.834 323.824 86.131 322.809 Z " fill="url(#_lgradient_86)"/><ellipse vector-effect="non-scaling-stroke" cx="122.37575611944844" cy="210.63267934247395" rx="1.9615370806955355" ry="1.6344216347246459" fill="rgb(105,240,174)"/><path d=" M 156.677 219.924 C 155.74 219.473 155.418 218.472 155.959 217.691 C 156.5 216.91 157.701 216.642 158.639 217.093 C 159.576 217.544 159.898 218.544 159.357 219.326 C 158.815 220.107 157.615 220.375 156.677 219.924 Z " fill="rgb(105,240,174)"/><path d=" M 181.785 240.849 C 181.243 240.068 181.565 239.067 182.503 238.616 C 183.44 238.165 184.641 238.433 185.182 239.214 C 185.723 239.996 185.402 240.996 184.464 241.447 C 183.527 241.898 182.326 241.63 181.785 240.849 Z " fill="rgb(105,240,174)"/><path d=" M 182.094 301.927 C 181.157 301.476 180.835 300.476 181.376 299.695 C 181.918 298.913 183.118 298.645 184.056 299.096 C 184.993 299.547 185.315 300.548 184.774 301.329 C 184.232 302.11 183.032 302.378 182.094 301.927 Z " fill="rgb(105,240,174)"/><path d=" M 154.588 322.451 C 154.046 321.67 154.368 320.669 155.306 320.218 C 156.243 319.767 157.444 320.035 157.985 320.817 C 158.526 321.598 158.205 322.598 157.267 323.049 C 156.33 323.5 155.129 323.232 154.588 322.451 Z " fill="rgb(105,240,174)"/><path d=" M 85.394 219.331 C 84.852 218.549 85.174 217.549 86.112 217.098 C 87.049 216.647 88.25 216.915 88.791 217.696 C 89.333 218.477 89.011 219.478 88.073 219.929 C 87.136 220.38 85.935 220.112 85.394 219.331 Z " fill="rgb(105,240,174)"/><path d=" M 60.289 241.448 C 59.352 240.997 59.03 239.997 59.571 239.215 C 60.112 238.434 61.313 238.166 62.251 238.617 C 63.188 239.068 63.51 240.069 62.969 240.85 C 62.427 241.631 61.227 241.899 60.289 241.448 Z " fill="rgb(105,240,174)"/><path d=" M 191.326 272.181 C 190.623 271.166 191.041 269.867 192.258 269.281 C 193.476 268.695 195.035 269.043 195.739 270.058 C 196.442 271.073 196.024 272.372 194.806 272.958 C 193.588 273.544 192.029 273.196 191.326 272.181 Z " fill="rgb(105,240,174)"/><path d=" M 59.984 301.328 C 59.442 300.547 59.764 299.546 60.702 299.095 C 61.639 298.644 62.84 298.912 63.381 299.693 C 63.922 300.475 63.601 301.475 62.663 301.926 C 61.726 302.377 60.525 302.109 59.984 301.328 Z " fill="rgb(105,240,174)"/><path d=" M 87.484 323.051 C 86.546 322.6 86.225 321.6 86.766 320.819 C 87.307 320.037 88.508 319.769 89.446 320.22 C 90.383 320.671 90.705 321.672 90.164 322.453 C 89.622 323.234 88.422 323.502 87.484 323.051 Z " fill="rgb(105,240,174)"/><ellipse vector-effect="non-scaling-stroke" cx="51.16294152890981" cy="271.06401030224964" rx="1.9615370806955426" ry="1.6344216347246174" fill="rgb(105,240,174)"/><ellipse vector-effect="non-scaling-stroke" cx="122.37575611944844" cy="328.2218013786832" rx="1.9615370806955355" ry="1.6344216347246174" fill="rgb(105,240,174)"/><g opacity="0.2"><path d=" M 49.855 275.418 C 49.866 246.558 73.159 221.309 106.627 213.879 C 140.096 206.449 175.378 218.695 192.619 243.725 C 181.408 222.026 156.706 207.278 128.442 205.409 C 100.178 203.541 72.994 214.859 57.816 234.814 C 42.639 254.769 41.961 280.083 56.056 300.582 C 51.952 292.634 49.842 284.07 49.855 275.418 L 49.855 275.418 Z " fill="rgb(108,99,255)"/></g><ellipse vector-effect="non-scaling-stroke" cx="122.37575611944851" cy="269.4295886675251" rx="3.269228467825897" ry="2.7240360578744003" fill="rgb(105,240,174)"/><path d=" M 1044.321 97.485 L 1044.321 333.287 C 1044.321 337.833 1049.56 341.519 1056.024 341.519 L 1537.104 341.519 C 1543.568 341.519 1548.807 337.833 1548.807 333.287 L 1548.807 97.485 L 1044.321 97.485 Z " fill="rgb(255,255,255)"/><g style="mix-blend-mode:normal;" opacity="0.1"><path d="M 1089.748 118.593 L 1199.334 118.593 C 1202.373 118.593 1204.84 121.06 1204.84 124.099 L 1204.84 162.878 C 1204.84 165.917 1202.373 168.384 1199.334 168.384 L 1089.748 168.384 C 1086.709 168.384 1084.242 165.917 1084.242 162.878 L 1084.242 124.099 C 1084.242 121.06 1086.709 118.593 1089.748 118.593 Z" style="stroke:none;fill:#000000;stroke-miterlimit:10;"/></g><g style="mix-blend-mode:normal;" opacity="0.1"><path d="M 1241.775 118.593 L 1351.361 118.593 C 1354.4 118.593 1356.867 121.06 1356.867 124.099 L 1356.867 162.878 C 1356.867 165.917 1354.4 168.384 1351.361 168.384 L 1241.775 168.384 C 1238.736 168.384 1236.269 165.917 1236.269 162.878 L 1236.269 124.099 C 1236.269 121.06 1238.736 118.593 1241.775 118.593 Z" style="stroke:none;fill:#000000;stroke-miterlimit:10;"/></g><path d="M 1091.44 119.292 L 1197.634 119.292 C 1200.673 119.292 1203.14 121.759 1203.14 124.798 L 1203.14 162.173 C 1203.14 165.212 1200.673 167.679 1197.634 167.679 L 1091.44 167.679 C 1088.402 167.679 1085.934 165.212 1085.934 162.173 L 1085.934 124.798 C 1085.934 121.759 1088.402 119.292 1091.44 119.292 Z" style="stroke:none;fill:#6C63FF;stroke-miterlimit:10;"/><g style="mix-blend-mode:normal;" opacity="0.1"><path d="M 1501.688 167.679 L 1395.494 167.679 C 1392.455 167.679 1389.988 165.212 1389.988 162.173 L 1389.988 124.798 C 1389.988 121.759 1392.455 119.292 1395.494 119.292 L 1501.688 119.292 C 1504.726 119.292 1507.194 121.759 1507.194 124.798 L 1507.194 162.173 C 1507.194 165.212 1504.726 167.679 1501.688 167.679 Z" style="stroke:none;fill:#444053;stroke-miterlimit:10;"/></g><path d="M 1349.661 167.679 L 1243.467 167.679 C 1240.428 167.679 1237.961 165.212 1237.961 162.173 L 1237.961 124.798 C 1237.961 121.759 1240.428 119.292 1243.467 119.292 L 1349.661 119.292 C 1352.7 119.292 1355.167 121.759 1355.167 124.798 L 1355.167 162.173 C 1355.167 165.212 1352.7 167.679 1349.661 167.679 Z" style="stroke:none;fill:#6C63FF;stroke-miterlimit:10;"/><g style="mix-blend-mode:normal;" opacity="0.1"><path d="M 1091.44 189.188 L 1197.634 189.188 C 1200.673 189.188 1203.14 191.655 1203.14 194.694 L 1203.14 232.069 C 1203.14 235.108 1200.673 237.575 1197.634 237.575 L 1091.44 237.575 C 1088.402 237.575 1085.934 235.108 1085.934 232.069 L 1085.934 194.694 C 1085.934 191.655 1088.402 189.188 1091.44 189.188 Z" style="stroke:none;fill:#444053;stroke-miterlimit:10;"/></g><g style="mix-blend-mode:normal;" opacity="0.1"><path d="M 1501.688 237.575 L 1395.494 237.575 C 1392.455 237.575 1389.988 235.108 1389.988 232.069 L 1389.988 194.694 C 1389.988 191.655 1392.455 189.188 1395.494 189.188 L 1501.688 189.188 C 1504.726 189.188 1507.194 191.655 1507.194 194.694 L 1507.194 232.069 C 1507.194 235.108 1504.726 237.575 1501.688 237.575 Z" style="stroke:none;fill:#444053;stroke-miterlimit:10;"/></g><g style="mix-blend-mode:normal;" opacity="0.1"><path d="M 1349.661 237.575 L 1243.467 237.575 C 1240.428 237.575 1237.961 235.108 1237.961 232.069 L 1237.961 194.694 C 1237.961 191.655 1240.428 189.188 1243.467 189.188 L 1349.661 189.188 C 1352.7 189.188 1355.167 191.655 1355.167 194.694 L 1355.167 232.069 C 1355.167 235.108 1352.7 237.575 1349.661 237.575 Z" style="stroke:none;fill:#444053;stroke-miterlimit:10;"/></g><g style="mix-blend-mode:normal;" opacity="0.1"><path d="M 1091.44 259.083 L 1197.634 259.083 C 1200.673 259.083 1203.14 261.551 1203.14 264.589 L 1203.14 301.965 C 1203.14 305.004 1200.673 307.471 1197.634 307.471 L 1091.44 307.471 C 1088.402 307.471 1085.934 305.004 1085.934 301.965 L 1085.934 264.589 C 1085.934 261.551 1088.402 259.083 1091.44 259.083 Z" style="stroke:none;fill:#444053;stroke-miterlimit:10;"/></g><g style="mix-blend-mode:normal;" opacity="0.1"><path d="M 1501.688 307.476 L 1395.494 307.476 C 1392.455 307.476 1389.988 305.009 1389.988 301.97 L 1389.988 264.595 C 1389.988 261.556 1392.455 259.089 1395.494 259.089 L 1501.688 259.089 C 1504.726 259.089 1507.194 261.556 1507.194 264.595 L 1507.194 301.97 C 1507.194 305.009 1504.726 307.476 1501.688 307.476 Z" style="stroke:none;fill:#444053;stroke-miterlimit:10;"/></g><g style="mix-blend-mode:normal;" opacity="0.1"><path d="M 1349.661 307.476 L 1243.467 307.476 C 1240.428 307.476 1237.961 305.009 1237.961 301.97 L 1237.961 264.595 C 1237.961 261.556 1240.428 259.089 1243.467 259.089 L 1349.661 259.089 C 1352.7 259.089 1355.167 261.556 1355.167 264.595 L 1355.167 301.97 C 1355.167 305.009 1352.7 307.476 1349.661 307.476 Z" style="stroke:none;fill:#444053;stroke-miterlimit:10;"/></g><path d=" M 1044.321 55.84 L 1044.321 98.68 L 1548.807 98.68 L 1548.807 55.84 C 1548.809 53.656 1547.577 51.561 1545.382 50.016 C 1543.187 48.471 1540.209 47.603 1537.104 47.603 L 1056.024 47.603 C 1052.919 47.603 1049.941 48.471 1047.746 50.016 C 1045.551 51.561 1044.319 53.656 1044.321 55.84 L 1044.321 55.84 Z  M 1169.169 68.513 C 1164.009 68.513 1159.826 65.571 1159.826 61.942 C 1159.826 58.312 1164.009 55.37 1169.169 55.37 C 1174.329 55.37 1178.512 58.312 1178.512 61.942 C 1178.512 63.685 1177.528 65.356 1175.776 66.588 C 1174.023 67.821 1171.647 68.513 1169.169 68.513 L 1169.169 68.513 Z  M 1423.959 68.513 C 1420.18 68.513 1416.773 66.912 1415.327 64.456 C 1413.881 62.001 1414.68 59.174 1417.352 57.295 C 1420.024 55.415 1424.043 54.853 1427.534 55.87 C 1431.025 56.887 1433.302 59.284 1433.302 61.942 C 1433.302 63.686 1432.315 65.359 1430.56 66.592 C 1428.804 67.825 1426.424 68.516 1423.944 68.513 L 1423.959 68.513 Z " fill="rgb(108,99,255)"/><g opacity="0.1"><path d=" M 1169.169 54.174 C 1164.702 54.172 1160.673 56.063 1158.962 58.965 C 1157.25 61.868 1158.193 65.21 1161.351 67.432 C 1164.508 69.655 1169.258 70.32 1173.386 69.118 C 1177.513 67.916 1180.204 65.084 1180.204 61.942 C 1180.206 59.882 1179.045 57.906 1176.975 56.45 C 1174.905 54.993 1172.097 54.174 1169.169 54.174 L 1169.169 54.174 Z  M 1169.169 68.513 C 1164.009 68.513 1159.826 65.571 1159.826 61.942 C 1159.826 58.312 1164.009 55.37 1169.169 55.37 C 1174.329 55.37 1178.512 58.312 1178.512 61.942 C 1178.512 63.685 1177.528 65.356 1175.776 66.588 C 1174.023 67.821 1171.647 68.513 1169.169 68.513 L 1169.169 68.513 Z " fill="rgb(0,0,0)"/></g><g opacity="0.1"><path d=" M 1423.944 54.174 C 1419.477 54.174 1415.451 56.067 1413.741 58.969 C 1412.032 61.872 1412.977 65.213 1416.135 67.434 C 1419.293 69.655 1424.043 70.32 1428.169 69.118 C 1432.296 67.916 1434.986 65.083 1434.986 61.942 C 1434.986 57.652 1430.042 54.174 1423.944 54.174 Z  M 1423.944 68.513 C 1420.165 68.513 1416.758 66.912 1415.312 64.456 C 1413.866 62.001 1414.665 59.174 1417.337 57.295 C 1420.009 55.415 1424.028 54.853 1427.519 55.87 C 1431.01 56.887 1433.286 59.284 1433.286 61.942 C 1433.286 65.571 1429.103 68.513 1423.944 68.513 L 1423.944 68.513 Z " fill="rgb(0,0,0)"/></g><linearGradient id="_lgradient_87" x1="0.5002957032313704" y1="0.9999835003996509" x2="0.5002957032313705" y2="-0.00004499667020940734" gradientTransform="matrix(139.451,0,0,237.28,1434.869,140.742)" gradientUnits="userSpaceOnUse"><stop offset="0%" stop-opacity="0.25" style="stop-color:rgb(128,128,128)"/><stop offset="54%" stop-opacity="0.12" style="stop-color:rgb(128,128,128)"/><stop offset="100%" stop-opacity="0.1" style="stop-color:rgb(128,128,128)"/></linearGradient><path d=" M 1570.794 353.263 C 1569.066 352.348 1567.172 351.6 1565.163 351.037 C 1565.01 350.982 1564.841 350.951 1564.669 350.947 C 1560.511 348.847 1556.625 346.493 1553.057 343.911 C 1553.816 343.483 1554.515 343.067 1555.258 342.656 C 1550.705 341.129 1548.177 337.633 1545.718 334.478 C 1539.217 326.09 1530.649 318.582 1520.415 312.302 C 1520.164 311.624 1518.699 311.768 1517.918 311.33 C 1517.399 310.979 1517.187 310.46 1517.364 309.969 C 1517.485 309.478 1517.804 309.024 1517.978 308.544 C 1518.396 307.417 1518.031 306.232 1517.849 305.074 C 1517.667 303.915 1517.743 302.623 1518.836 301.759 C 1519.185 301.476 1519.633 301.257 1519.974 300.968 C 1520.7 300.282 1520.976 299.41 1520.733 298.572 C 1520.651 297.74 1520.395 296.922 1519.974 296.143 Q 1525.553 285.466 1531.123 274.752 C 1533.727 269.766 1536.353 264.673 1536.618 259.356 C 1536.831 255.085 1535.267 250.649 1531.594 247.387 C 1532.262 247.275 1532.93 247.157 1533.59 247.024 C 1529.249 242.977 1528.778 237.618 1528.664 232.52 Q 1528.573 228.708 1528.293 224.891 C 1529.552 225.281 1530.828 225.628 1532.133 225.927 L 1533.347 226.188 C 1535.319 226.594 1537.331 226.897 1539.366 227.096 C 1540.261 227.186 1541.172 227.256 1542.075 227.299 L 1542.075 227.299 Q 1540.117 223.85 1538.167 220.391 C 1537.49 219.37 1537.079 218.273 1536.952 217.15 L 1536.952 217.15 L 1536.952 216.937 C 1536.952 216.809 1536.952 216.68 1536.99 216.552 C 1537.042 216.247 1537.141 215.946 1537.286 215.656 C 1537.353 215.512 1537.432 215.371 1537.522 215.234 C 1537.792 214.813 1538.117 214.411 1538.493 214.033 C 1538.766 213.739 1539.07 213.456 1539.373 213.168 C 1540.504 212.239 1541.424 211.193 1542.098 210.066 C 1542.365 209.496 1542.506 208.9 1542.515 208.299 C 1542.53 207.69 1542.454 207.082 1542.288 206.484 C 1542.182 206.089 1542.045 205.689 1541.893 205.304 L 1541.893 205.304 C 1541.794 205.064 1541.688 204.824 1541.582 204.589 L 1541.491 204.397 C 1541.407 204.215 1541.324 204.039 1541.233 203.863 L 1541.142 203.681 C 1541.043 203.489 1540.944 203.302 1540.838 203.11 L 1540.777 202.998 C 1539.328 200.377 1537.4 197.879 1536.224 195.183 C 1535.914 194.465 1535.661 193.736 1535.465 192.999 C 1535.412 192.812 1535.374 192.62 1535.328 192.433 C 1535.283 192.247 1535.26 192.113 1535.229 191.953 C 1535.199 191.793 1535.161 191.579 1535.131 191.392 L 1535.062 190.859 C 1535.062 190.688 1535.025 190.517 1535.009 190.325 C 1535.009 189.999 1534.964 189.674 1534.956 189.348 C 1534.956 189.23 1534.956 189.118 1534.956 189.001 C 1534.956 188.755 1534.956 188.504 1534.956 188.259 C 1534.956 188.125 1534.956 187.992 1534.956 187.864 C 1534.956 187.618 1535.009 187.373 1535.04 187.132 C 1535.04 187.015 1535.04 186.898 1535.093 186.785 Q 1535.169 186.252 1535.298 185.718 L 1535.298 185.718 C 1535.374 185.403 1535.457 185.082 1535.548 184.762 C 1535.823 183.885 1535.966 182.991 1535.973 182.093 C 1535.973 181.922 1535.973 181.746 1535.92 181.559 C 1535.867 181.372 1535.859 181.271 1535.821 181.132 C 1535.818 181.089 1535.818 181.047 1535.821 181.004 C 1535.821 180.908 1535.753 180.812 1535.723 180.716 C 1535.692 180.62 1535.685 180.625 1535.662 180.582 C 1535.639 180.54 1535.579 180.395 1535.533 180.305 C 1535.487 180.214 1535.495 180.225 1535.472 180.182 C 1535.45 180.139 1535.366 179.99 1535.305 179.899 L 1535.252 179.803 C 1535.176 179.685 1535.093 179.573 1535.009 179.461 L 1535.009 179.461 C 1534.715 179.072 1534.375 178.7 1533.992 178.351 L 1533.992 178.351 C 1531.495 176.045 1527.344 174.288 1525.059 171.747 C 1523.726 170.1 1522.857 168.288 1522.502 166.409 C 1522.388 165.982 1522.289 165.555 1522.183 165.133 C 1522.077 164.711 1521.986 164.295 1521.879 163.878 C 1521.811 163.622 1521.743 163.345 1521.667 163.11 L 1521.621 162.944 C 1521.561 162.741 1521.5 162.533 1521.432 162.33 L 1521.386 162.186 C 1521.318 161.973 1521.249 161.759 1521.174 161.545 L 1521.128 161.433 C 1521.052 161.209 1520.969 160.985 1520.885 160.761 C 1520.882 160.734 1520.882 160.707 1520.885 160.681 C 1520.794 160.446 1520.695 160.211 1520.597 159.976 L 1520.597 159.928 C 1520.491 159.682 1520.384 159.442 1520.27 159.202 L 1520.27 159.202 C 1520.157 158.956 1520.035 158.705 1519.906 158.46 L 1519.906 158.46 C 1519.769 158.209 1519.64 157.958 1519.496 157.713 L 1519.496 157.713 C 1518.542 155.993 1517.249 154.375 1515.656 152.908 C 1512.18 149.769 1506.807 147.516 1501.236 147.666 C 1498.245 147.746 1495.377 148.482 1492.561 149.214 L 1485.252 151.109 L 1487.294 150.447 C 1485.169 150.58 1482.998 150.719 1481.078 151.381 C 1479.158 152.043 1477.534 153.34 1477.473 154.856 C 1477.435 155.737 1477.928 156.613 1477.769 157.488 C 1477.503 158.935 1475.613 159.917 1474.634 161.198 C 1474.061 161.97 1473.798 162.838 1473.875 163.708 L 1473.875 163.75 C 1473.875 163.852 1473.875 163.948 1473.875 164.049 C 1473.872 164.078 1473.872 164.106 1473.875 164.135 L 1473.875 164.305 C 1470.84 163.377 1467.804 162.41 1464.768 161.375 C 1459.751 159.64 1454.674 157.6 1451.547 154.312 C 1450.545 153.244 1449.771 152.091 1448.777 151.034 C 1447.636 149.897 1446.367 148.825 1444.982 147.831 L 1435.669 140.742 C 1434.956 141.687 1435.874 142.802 1436.595 143.742 C 1437.361 144.727 1437.94 145.779 1438.318 146.87 C 1438.502 147.226 1438.486 147.617 1438.273 147.965 C 1437.934 148.251 1437.494 148.47 1436.998 148.6 C 1435.249 149.374 1434.46 150.88 1435.077 152.267 C 1435.75 153.619 1437.385 154.621 1439.381 154.905 C 1440.038 154.957 1440.683 155.068 1441.301 155.236 C 1442.424 155.625 1442.955 156.533 1443.76 157.211 C 1445.225 158.449 1447.555 158.914 1449.778 159.319 C 1453.224 162.117 1456.806 164.797 1460.252 167.594 C 1465.466 171.827 1470.802 176.135 1477.602 178.997 C 1478.308 179.296 1479.029 179.573 1479.757 179.83 C 1479.757 179.915 1479.757 180 1479.719 180.086 C 1479.529 180.717 1479.644 181.374 1480.046 181.954 C 1480.653 182.632 1481.905 182.835 1483.021 182.974 L 1488.167 183.62 C 1488.121 184.089 1488.037 184.556 1487.916 185.018 C 1487.848 185.301 1487.764 185.579 1487.688 185.862 L 1487.688 185.862 L 1487.597 186.225 C 1487.597 186.225 1487.597 186.262 1487.597 186.278 C 1487.597 186.278 1487.597 186.47 1487.544 186.572 C 1487.544 186.572 1487.544 186.641 1487.544 186.673 L 1487.544 186.93 L 1487.544 187.036 C 1487.544 187.148 1487.544 187.266 1487.544 187.383 C 1487.719 188.803 1489.062 189.978 1490.405 191.062 L 1491.126 191.675 C 1489.982 192.689 1489.18 193.872 1488.781 195.135 C 1488.552 195.927 1488.441 196.734 1488.447 197.542 C 1487.759 198.004 1487.239 198.575 1486.929 199.208 C 1486.57 200.083 1486.436 200.996 1486.535 201.904 L 1486.535 201.968 C 1486.535 202.304 1486.535 202.635 1486.535 202.971 C 1486.447 204.247 1486.747 205.521 1487.415 206.708 C 1487.483 206.804 1487.559 206.89 1487.628 206.981 C 1486.489 208.55 1484.592 209.773 1483.233 211.251 C 1480.418 214.615 1480.901 218.858 1484.44 221.864 C 1485.48 222.708 1486.816 223.519 1486.937 224.64 C 1486.919 225.148 1486.848 225.655 1486.725 226.156 C 1486.603 227.363 1487.392 228.505 1487.817 229.674 C 1488.174 230.646 1488.189 231.81 1487.4 232.589 C 1486.602 233.408 1486.234 234.397 1486.36 235.386 C 1486.747 236.897 1485.859 238.408 1485.708 239.94 C 1485.639 240.597 1485.708 241.264 1485.624 241.92 C 1485.515 242.55 1485.329 243.171 1485.07 243.778 C 1485.07 243.842 1485.024 243.912 1484.994 243.981 C 1483.119 244.563 1481.26 245.166 1479.469 245.866 C 1478.502 246.169 1477.702 246.686 1477.192 247.339 C 1476.889 247.995 1476.847 248.696 1477.071 249.368 L 1478.687 257.279 L 1478.406 257.194 Q 1478.596 259.137 1478.801 261.096 C 1478.9 262.084 1479.029 263.13 1479.864 263.92 C 1480.288 264.239 1480.672 264.584 1481.01 264.95 C 1481.647 265.858 1480.888 266.915 1480.326 267.844 C 1479.765 268.773 1479.568 270.091 1480.805 270.593 C 1481.45 270.909 1482.145 271.17 1482.877 271.372 C 1481.359 275.825 1482.755 280.49 1484.167 284.959 Q 1485.783 290.083 1487.408 295.198 C 1487.831 296.646 1488.07 298.118 1488.121 299.597 C 1488.121 299.81 1488.121 300.024 1488.121 300.237 C 1488.273 302.27 1488.783 304.282 1489.639 306.227 C 1491.324 310.22 1489.707 315.014 1490.238 319.365 C 1490.592 321.457 1491.186 323.527 1492.014 325.552 C 1495.68 335.78 1498.951 345.806 1500.211 356.322 C 1501.559 357.53 1503.387 358.427 1505.463 358.901 C 1505.311 360.193 1505.516 361.671 1505.463 362.424 C 1505.461 363.047 1505.323 363.667 1505.053 364.261 C 1504.408 365.446 1502.776 366.22 1501.084 366.636 C 1500.553 366.764 1500.014 366.866 1499.467 366.956 L 1500.075 366.593 C 1496.605 366.063 1492.977 366.512 1489.973 367.843 C 1489.02 368.184 1488.301 368.78 1487.977 369.498 C 1487.852 370.176 1488.102 370.862 1488.675 371.414 C 1490.346 373.134 1492.836 374.378 1495.695 374.921 C 1498.521 375.445 1501.426 375.73 1504.347 375.77 L 1509.706 375.989 C 1509.329 376.434 1509.478 377.007 1510.055 377.329 C 1510.629 377.624 1511.311 377.798 1512.021 377.831 C 1514.21 378.059 1516.433 378.083 1518.631 377.9 C 1519.182 377.889 1519.714 377.754 1520.149 377.516 C 1520.353 377.385 1520.47 377.2 1520.47 377.006 C 1520.47 376.812 1520.353 376.627 1520.149 376.496 C 1520.807 376.481 1521.385 376.185 1521.606 375.749 C 1521.816 375.315 1521.884 374.853 1521.804 374.398 C 1521.659 372.642 1521.439 370.09 1520.141 368.526 C 1519.68 367.941 1518.721 367.644 1517.796 367.8 C 1516.957 364.674 1516.449 361.508 1516.278 358.33 C 1517.615 357.977 1518.919 357.563 1520.179 357.091 C 1516.453 352.858 1516.385 347.482 1517.523 342.56 C 1517.975 341.006 1518.307 339.436 1518.517 337.857 C 1518.768 334.707 1518.092 331.141 1515.61 328.536 C 1520.135 330.56 1524.138 333.108 1527.45 336.074 C 1532.695 340.878 1535.89 346.697 1542.318 350.701 Q 1543.586 349.831 1544.883 348.971 Q 1546.917 351.395 1548.731 353.92 C 1549.68 355.158 1550.428 356.467 1550.963 357.822 C 1551.555 359.896 1551.624 362.026 1551.168 364.116 Q 1550.902 365.782 1550.522 367.432 C 1550.42 367.902 1550.266 368.366 1550.059 368.82 C 1550.057 368.675 1550.007 368.533 1549.915 368.403 C 1549.513 367.907 1548.397 368.131 1547.79 368.473 C 1546.709 369.043 1545.816 369.772 1545.172 370.608 C 1544.818 371.016 1544.653 371.492 1544.701 371.969 C 1544.9 372.551 1545.456 373.04 1546.219 373.304 C 1549.035 374.462 1552.572 373.624 1555.592 372.77 C 1556.427 372.559 1557.222 372.277 1557.96 371.932 C 1559.478 371.163 1560.305 369.898 1561.816 369.151 C 1562.622 368.839 1563.4 368.493 1564.146 368.115 C 1565.55 367.213 1565.664 365.691 1566.688 364.549 C 1568.388 362.579 1572.191 362.072 1573.678 359.984 C 1575.401 357.678 1573.39 354.769 1570.794 353.263 Z " fill="url(#_lgradient_87)"/><path d=" M 1505.364 362.659 C 1505.36 363.276 1505.219 363.888 1504.947 364.474 C 1504.31 365.643 1502.67 366.407 1500.985 366.818 C 1499.3 367.229 1497.509 367.351 1495.794 367.709 C 1495.041 367.83 1494.343 368.083 1493.768 368.446 C 1492.25 369.514 1493.16 371.435 1494.936 372.231 C 1496.712 373.026 1498.974 373 1501.084 372.898 C 1505.561 372.715 1510.009 372.27 1514.381 371.569 C 1515.96 371.307 1517.804 370.795 1518.054 369.668 C 1518.102 369.31 1518.061 368.949 1517.933 368.601 C 1516.856 364.779 1516.284 360.896 1516.225 357 C 1516.225 356.744 1507.421 356.579 1506.602 356.952 C 1504.765 357.801 1505.463 361.346 1505.364 362.659 Z " fill="rgb(161,97,106)"/><path d=" M 1544.618 349.062 Q 1546.804 351.609 1548.724 354.256 C 1549.672 355.476 1550.42 356.767 1550.955 358.105 C 1551.543 360.15 1551.613 362.252 1551.16 364.314 Q 1550.894 365.953 1550.507 367.586 C 1550.257 368.654 1549.855 369.866 1548.557 370.48 C 1549.728 370.968 1551.152 371.057 1552.427 370.72 C 1553.68 370.379 1554.834 369.882 1555.835 369.252 C 1562.339 365.478 1567.219 359.995 1567.462 354.064 C 1567.531 353.601 1567.407 353.134 1567.106 352.719 C 1566.799 352.429 1566.412 352.185 1565.967 352.004 C 1561.114 349.678 1556.606 347.015 1552.511 344.055 C 1552.27 343.827 1551.919 343.669 1551.524 343.612 C 1551.213 343.613 1550.909 343.674 1550.644 343.788 C 1548.147 344.669 1543.973 345.923 1542.933 347.925 C 1543.644 348.177 1544.231 348.573 1544.618 349.062 L 1544.618 349.062 Z " fill="rgb(161,97,106)"/><path d=" M 1514.259 368.857 C 1508.795 370.458 1502.875 371.035 1496.963 371.585 C 1496.204 371.649 1495.392 371.692 1494.891 371.318 C 1494.484 370.961 1494.43 370.465 1494.754 370.069 C 1495.076 369.684 1495.508 369.349 1496.022 369.086 L 1499.946 366.775 C 1496.524 366.264 1492.955 366.696 1489.973 367.981 C 1489.036 368.31 1488.321 368.886 1487.984 369.583 C 1487.858 370.254 1488.108 370.934 1488.683 371.478 C 1490.362 373.18 1492.848 374.407 1495.695 374.937 C 1498.521 375.452 1501.422 375.734 1504.34 375.775 L 1509.653 375.989 C 1509.274 376.43 1509.427 377 1510.009 377.313 C 1510.586 377.609 1511.27 377.785 1511.983 377.82 C 1514.17 378.044 1516.39 378.066 1518.586 377.884 C 1519.137 377.878 1519.67 377.745 1520.103 377.505 C 1520.307 377.377 1520.423 377.195 1520.423 377.003 C 1520.423 376.812 1520.307 376.629 1520.103 376.501 C 1520.759 376.488 1521.337 376.193 1521.561 375.759 C 1521.763 375.332 1521.831 374.878 1521.758 374.43 C 1521.614 372.701 1521.394 370.159 1520.096 368.649 C 1518.798 367.138 1516.096 368.323 1514.259 368.857 Z " fill="rgb(63,61,86)"/><path d=" M 1570.658 353.594 C 1568.926 352.691 1567.033 351.954 1565.026 351.4 C 1564.864 351.313 1564.653 351.282 1564.455 351.318 C 1564.257 351.353 1564.092 351.45 1564.009 351.582 C 1560.425 355.003 1557.626 358.799 1555.714 362.83 C 1554.628 365.125 1553.771 367.57 1551.57 369.428 C 1551.281 369.674 1550.811 369.925 1550.416 369.78 C 1549.847 369.578 1550.196 368.932 1549.877 368.542 C 1549.483 368.051 1548.405 368.275 1547.76 368.611 C 1546.675 369.178 1545.783 369.907 1545.149 370.747 C 1544.786 371.144 1544.62 371.616 1544.678 372.087 C 1544.87 372.657 1545.412 373.138 1546.158 373.4 C 1548.974 374.548 1552.511 373.72 1555.524 372.866 C 1556.356 372.66 1557.149 372.382 1557.884 372.039 C 1559.402 371.286 1560.23 370.031 1561.74 369.3 C 1562.546 368.992 1563.324 368.65 1564.07 368.275 C 1565.466 367.384 1565.588 365.883 1566.605 364.752 C 1568.305 362.814 1572.107 362.312 1573.595 360.251 C 1575.257 357.951 1573.253 355.078 1570.658 353.594 Z " fill="rgb(63,61,86)"/><path d=" M 1528.3 246.96 C 1534.266 250.11 1536.77 255.71 1536.505 260.952 C 1536.239 266.194 1533.62 271.223 1531.025 276.14 Q 1525.446 286.694 1519.883 297.242 C 1520.297 298.014 1520.552 298.823 1520.642 299.645 C 1520.88 300.471 1520.604 301.33 1519.883 302.004 C 1519.534 302.287 1519.124 302.506 1518.745 302.784 C 1517.652 303.638 1517.584 304.919 1517.758 306.056 C 1517.933 307.193 1518.305 308.367 1517.887 309.478 C 1517.713 309.953 1517.394 310.401 1517.273 310.882 C 1517.1 311.368 1517.312 311.881 1517.827 312.227 C 1518.586 312.654 1520.103 312.515 1520.324 313.188 C 1530.529 319.371 1539.087 326.782 1545.597 335.076 C 1548.056 338.188 1550.538 341.636 1555.129 343.142 C 1550.655 345.635 1546.367 348.288 1542.28 351.091 C 1535.867 347.14 1532.672 341.391 1527.435 336.677 C 1524.12 333.745 1520.122 331.231 1515.61 329.241 C 1518.092 331.808 1518.768 335.332 1518.517 338.433 C 1518.307 339.991 1517.975 341.54 1517.523 343.072 C 1516.347 347.93 1516.453 353.215 1520.179 357.411 C 1516.202 358.863 1511.633 359.942 1507.194 359.509 C 1504.408 359.231 1501.878 358.215 1500.12 356.669 C 1498.86 346.291 1495.566 336.383 1491.931 326.31 C 1491.098 324.3 1490.506 322.245 1490.163 320.165 C 1489.631 315.895 1491.248 311.143 1489.555 307.204 C 1488.703 305.288 1488.193 303.304 1488.037 301.299 C 1488.037 301.086 1488.037 300.878 1488.037 300.664 C 1487.986 299.207 1487.747 297.756 1487.324 296.329 L 1484.091 286.229 C 1482.679 281.814 1481.268 277.213 1482.793 272.819 C 1482.066 272.621 1481.373 272.365 1480.729 272.056 C 1479.492 271.559 1479.689 270.262 1480.251 269.344 C 1480.812 268.426 1481.564 267.385 1480.934 266.488 C 1480.598 266.124 1480.214 265.782 1479.788 265.468 C 1478.953 264.689 1478.824 263.658 1478.725 262.687 L 1478.33 258.832 C 1480.622 259.471 1482.53 260.646 1483.734 262.158 C 1480.744 258.902 1482.216 254.257 1484.425 250.702 C 1485.268 248.465 1488.104 246.886 1491.392 246.821 C 1503.558 245.358 1518.419 241.734 1528.3 246.96 Z " fill="rgb(63,61,86)"/><g opacity="0.1"><path d=" M 1522.752 268.879 C 1522.752 268.879 1516.772 271.687 1516.772 273.791 C 1516.772 273.791 1515.254 294.824 1515.254 294.824 L 1515.254 308.17 C 1515.254 308.17 1516.248 315.185 1515.254 316.936 C 1515.254 316.936 1515.254 326.753 1515.254 327.805 C 1515.254 327.805 1516.772 316.936 1516.772 316.936 L 1516.772 304.294 L 1518.29 275.542 L 1522.752 268.879 Z " fill="rgb(0,0,0)"/></g><path d=" M 1489.396 171.646 L 1485.912 170.69 C 1478.793 168.683 1471.667 166.67 1464.775 164.316 C 1459.766 162.602 1454.689 160.579 1451.57 157.35 C 1450.568 156.282 1449.794 155.161 1448.799 154.109 C 1447.657 152.984 1446.388 151.926 1445.005 150.943 L 1435.7 143.95 C 1434.986 144.884 1435.897 145.984 1436.626 146.908 C 1437.388 147.881 1437.967 148.92 1438.349 149.999 C 1438.528 150.346 1438.508 150.728 1438.295 151.066 C 1437.96 151.352 1437.523 151.569 1437.028 151.696 C 1435.284 152.448 1434.493 153.938 1435.108 155.31 C 1435.785 156.651 1437.418 157.641 1439.404 157.915 C 1440.06 157.969 1440.705 158.078 1441.324 158.241 C 1442.447 158.631 1442.978 159.522 1443.783 160.19 C 1445.247 161.412 1447.577 161.876 1449.794 162.272 C 1453.239 165.031 1456.814 167.674 1460.26 170.434 C 1465.466 174.609 1470.794 178.858 1477.594 181.687 C 1480.009 182.726 1482.654 183.473 1485.419 183.897 C 1486.334 179.753 1487.663 175.659 1489.396 171.646 L 1489.396 171.646 Z " fill="rgb(161,97,106)"/><g opacity="0.15"><path d=" M 1489.396 171.646 L 1485.912 170.69 C 1478.793 168.683 1471.667 166.67 1464.775 164.316 C 1459.766 162.602 1454.689 160.579 1451.57 157.35 C 1450.568 156.282 1449.794 155.161 1448.799 154.109 C 1447.657 152.984 1446.388 151.926 1445.005 150.943 L 1435.7 143.95 C 1434.986 144.884 1435.897 145.984 1436.626 146.908 C 1437.388 147.881 1437.967 148.92 1438.349 149.999 C 1438.528 150.346 1438.508 150.728 1438.295 151.066 C 1437.96 151.352 1437.523 151.569 1437.028 151.696 C 1435.284 152.448 1434.493 153.938 1435.108 155.31 C 1435.785 156.651 1437.418 157.641 1439.404 157.915 C 1440.06 157.969 1440.705 158.078 1441.324 158.241 C 1442.447 158.631 1442.978 159.522 1443.783 160.19 C 1445.247 161.412 1447.577 161.876 1449.794 162.272 C 1453.239 165.031 1456.814 167.674 1460.26 170.434 C 1465.466 174.609 1470.794 178.858 1477.594 181.687 C 1480.009 182.726 1482.654 183.473 1485.419 183.897 C 1486.334 179.753 1487.663 175.659 1489.396 171.646 L 1489.396 171.646 Z " fill="rgb(0,0,0)"/></g><path d=" M 1483.021 185.584 C 1481.905 185.446 1480.653 185.253 1480.046 184.581 C 1479.644 184.01 1479.529 183.361 1479.719 182.739 C 1480.323 178.715 1481.597 174.756 1483.514 170.941 C 1485.207 173.146 1488.538 174.432 1491.696 175.591 C 1494.514 176.693 1497.453 177.636 1500.484 178.409 C 1499.725 178.239 1497.866 186.449 1496.819 186.951 C 1495.498 187.602 1492.31 186.721 1490.846 186.545 L 1483.021 185.584 Z " fill="rgb(108,99,255)"/><ellipse vector-effect="non-scaling-stroke" cx="1491.1036861957482" cy="171.93935394321136" rx="15.953279007603669" ry="11.221316267242798" fill="rgb(161,97,106)"/><path d=" M 1487.863 181.228 C 1487.863 181.228 1498.329 187.538 1493.844 191.745 C 1493.844 191.745 1486.861 198.759 1492.842 199.112 C 1492.842 199.112 1518.76 192.097 1518.76 192.097 C 1518.76 192.097 1500.317 181.581 1503.308 175.271 C 1506.298 168.961 1487.863 181.228 1487.863 181.228 Z " fill="rgb(251,190,190)"/><path d=" M 1497.904 191.104 C 1493.354 191.873 1489.81 194.381 1488.743 197.585 C 1487.567 201.365 1490.064 205.593 1487.711 209.073 C 1486.603 210.728 1484.546 211.967 1483.157 213.52 C 1480.354 216.834 1480.835 221.033 1484.357 223.989 C 1485.396 224.822 1486.732 225.628 1486.854 226.727 C 1486.836 227.229 1486.765 227.728 1486.641 228.222 C 1486.52 229.413 1487.309 230.544 1487.734 231.697 C 1488.091 232.653 1488.106 233.801 1487.316 234.569 C 1486.52 235.375 1486.155 236.353 1486.284 237.329 C 1486.664 238.824 1485.776 240.314 1485.624 241.824 C 1485.556 242.476 1485.624 243.127 1485.541 243.778 C 1485.43 244.398 1485.247 245.01 1484.994 245.609 L 1483.658 249.074 C 1490.899 251.252 1498.595 252.037 1506.427 251.935 C 1513.44 251.839 1520.354 250.82 1527.215 249.8 C 1529.302 249.49 1531.389 249.181 1533.446 248.78 C 1529.105 244.787 1528.642 239.497 1528.52 234.473 C 1528.331 226.098 1527.442 217.738 1525.856 209.436 C 1527.959 206.644 1528.892 203.532 1529.757 200.43 C 1530.146 199.181 1530.309 197.902 1530.243 196.624 C 1530.031 193.955 1528.285 191.419 1526.577 189.001 C 1525.014 186.791 1523.321 184.463 1519.838 183.508 C 1518.128 183.001 1516.167 183.152 1514.654 183.908 C 1512.021 185.307 1512.802 187.72 1512.127 189.78 C 1511.239 192.449 1507.74 194.366 1504.014 195.119 C 1501.232 195.631 1498.351 195.821 1495.483 195.679 C 1494.91 195.656 1494.404 195.408 1494.176 195.037 C 1493.948 194.667 1494.037 194.238 1494.405 193.928 C 1495.627 192.978 1496.857 192.012 1497.904 191.104 Z " fill="rgb(108,99,255)"/><path d=" M 1510.26 234.479 C 1504.355 237.874 1498.382 241.301 1491.567 243.703 C 1487.567 245.113 1483.317 246.154 1479.423 247.67 C 1478.461 247.967 1477.662 248.477 1477.146 249.122 C 1476.836 249.768 1476.794 250.462 1477.025 251.124 L 1478.755 259.516 C 1479.234 261.79 1482.338 263.253 1484.827 264.705 C 1484.69 263.941 1484.47 263.349 1484.986 262.671 C 1485.165 262.459 1485.36 262.254 1485.571 262.057 C 1486.633 260.925 1486.671 259.457 1486.413 258.112 C 1486.155 256.767 1485.654 255.443 1485.753 254.065 C 1485.71 253.602 1486.015 253.156 1486.558 252.891 C 1495.035 250.024 1504.165 247.825 1512.734 245.102 C 1515.001 244.458 1517.137 243.605 1519.086 242.566 C 1521.045 241.509 1522.363 239.97 1522.775 238.258 C 1522.854 238.034 1522.8 237.797 1522.623 237.602 C 1522.451 237.469 1522.226 237.376 1521.978 237.335 C 1518.138 236.352 1514.085 235.45 1510.26 234.479 Z " fill="rgb(161,97,106)"/><g opacity="0.1"><path d=" M 1493.859 199.267 C 1490.929 199.614 1487.848 200.681 1486.854 202.657 C 1486.496 203.522 1486.362 204.427 1486.459 205.326 C 1486.368 206.59 1486.671 207.852 1487.347 209.025 C 1487.846 209.673 1488.442 210.281 1489.123 210.84 C 1496.136 217.161 1499.657 225.099 1506.488 231.521 C 1507.095 232.087 1508.203 232.824 1507.861 233.491 C 1507.737 233.664 1507.628 233.842 1507.535 234.025 C 1507.472 234.375 1507.66 234.725 1508.036 234.959 C 1508.4 235.194 1508.683 235.484 1508.863 235.808 C 1508.992 236.144 1508.674 236.582 1508.18 236.555 C 1509 238.338 1511.512 239.379 1513.895 240.223 C 1517.857 241.627 1522.244 242.732 1526.653 242.428 C 1527.481 240.095 1528.634 237.458 1528.171 235.082 C 1527.687 233.268 1526.83 231.513 1525.629 229.872 L 1522.661 225.313 C 1520.134 221.421 1517.584 217.503 1514.062 214.017 C 1512.793 212.913 1511.725 211.703 1510.882 210.413 C 1509.979 208.764 1507.497 207.605 1505.994 206.191 C 1503.763 204.055 1501.441 201.92 1498.45 200.377 C 1497.251 199.726 1495.323 199.096 1493.859 199.267 Z " fill="rgb(0,0,0)"/></g><path d=" M 1493.859 198.215 C 1490.929 198.562 1487.848 199.63 1486.854 201.6 C 1486.497 202.466 1486.364 203.37 1486.459 204.269 C 1486.368 205.533 1486.671 206.795 1487.347 207.968 C 1487.846 208.616 1488.442 209.224 1489.123 209.783 C 1496.136 216.104 1499.657 224.042 1506.488 230.464 C 1507.095 231.03 1508.203 231.767 1507.861 232.434 C 1507.737 232.607 1507.628 232.785 1507.535 232.968 C 1507.472 233.318 1507.66 233.668 1508.036 233.902 C 1508.4 234.137 1508.683 234.427 1508.863 234.751 C 1508.992 235.087 1508.674 235.525 1508.18 235.498 C 1509 237.281 1511.512 238.322 1513.895 239.166 C 1517.857 240.57 1522.244 241.675 1526.653 241.371 C 1527.481 239.038 1528.634 236.401 1528.171 234.025 C 1527.687 232.211 1526.83 230.456 1525.629 228.815 L 1522.661 224.256 C 1520.134 220.364 1517.584 216.446 1514.062 212.96 C 1512.792 211.855 1511.724 210.643 1510.882 209.351 C 1509.979 207.707 1507.497 206.548 1505.994 205.134 C 1503.763 202.998 1501.441 200.863 1498.45 199.32 C 1497.251 198.674 1495.323 198.044 1493.859 198.215 Z " fill="rgb(108,99,255)"/><path d=" M 1487.172 153.506 C 1485.055 153.634 1482.877 153.773 1480.964 154.424 C 1479.051 155.075 1477.42 156.357 1477.359 157.851 C 1477.359 158.721 1477.814 159.586 1477.655 160.446 C 1477.389 161.876 1475.5 162.843 1474.528 164.108 C 1472.828 166.307 1474.149 169.105 1476.35 171.048 C 1478.551 172.991 1481.533 174.486 1483.795 176.418 C 1487.405 179.545 1488.906 183.62 1487.908 187.586 C 1487.628 188.348 1487.492 189.132 1487.506 189.919 C 1487.681 191.318 1489.024 192.476 1490.36 193.544 C 1496.858 198.888 1502.87 204.516 1508.362 210.392 C 1510.01 212.099 1511.491 213.882 1512.795 215.73 C 1514.085 217.641 1515.072 219.681 1516.863 221.373 C 1518.516 222.826 1520.542 224.048 1522.836 224.976 C 1528.621 227.486 1535.182 228.975 1541.961 229.316 L 1538.053 222.499 C 1537.362 221.288 1536.649 220.012 1536.876 218.714 C 1537.309 216.259 1540.831 214.647 1541.977 212.308 C 1542.736 210.803 1542.394 209.143 1541.772 207.611 C 1540.39 204.157 1537.628 201.05 1536.14 197.617 C 1534.836 194.607 1534.545 191.425 1535.29 188.323 C 1535.617 186.956 1536.148 185.584 1535.905 184.212 C 1535.184 180.038 1528.224 178.041 1525.006 174.502 C 1522.927 172.228 1522.525 169.425 1521.826 166.766 C 1520.817 162.885 1519.018 159.01 1515.542 155.913 C 1512.066 152.817 1506.708 150.575 1501.122 150.741 C 1498.132 150.821 1495.27 151.552 1492.455 152.267 L 1485.138 154.141" fill="rgb(63,61,86)"/><g opacity="0.1"><path d=" M 1519.83 162.223 C 1520.46 164.62 1520.855 167.135 1522.449 169.275 C 1522.229 168.443 1522.046 167.605 1521.826 166.782 C 1521.311 164.69 1520.492 162.64 1519.382 160.665 C 1519.572 161.182 1519.701 161.7 1519.83 162.223 Z " fill="rgb(0,0,0)"/></g><g opacity="0.1"><path d=" M 1533.294 183.78 C 1532.553 186.884 1532.844 190.067 1534.144 193.079 C 1534.501 193.896 1534.903 194.681 1535.389 195.482 C 1534.757 193.124 1534.723 190.705 1535.29 188.339 C 1535.617 186.972 1536.148 185.6 1535.905 184.228 C 1535.681 183.053 1534.998 181.944 1533.932 181.025 C 1533.818 181.954 1533.514 182.867 1533.294 183.78 Z " fill="rgb(0,0,0)"/></g><g opacity="0.1"><path d=" M 1541.772 207.627 C 1541.351 206.624 1540.844 205.639 1540.254 204.68 C 1540.509 205.71 1540.41 206.768 1539.965 207.765 C 1538.819 210.098 1535.29 211.716 1534.865 214.171 C 1534.637 215.469 1535.343 216.745 1536.042 217.956 C 1536.3 218.41 1536.558 218.869 1536.8 219.323 C 1536.782 219.126 1536.782 218.928 1536.8 218.73 C 1537.233 216.275 1540.755 214.663 1541.901 212.324 C 1542.72 210.819 1542.394 209.159 1541.772 207.627 Z " fill="rgb(0,0,0)"/></g><g opacity="0.1"><path d=" M 1520.847 220.433 C 1518.554 219.503 1516.528 218.279 1514.874 216.825 C 1513.075 215.132 1512.089 213.088 1510.799 211.182 C 1509.497 209.333 1508.016 207.549 1506.366 205.844 C 1500.876 199.966 1494.866 194.337 1488.371 188.99 C 1488.136 188.803 1487.908 188.611 1487.681 188.419 C 1487.524 188.913 1487.465 189.419 1487.506 189.924 C 1487.681 191.323 1489.024 192.482 1490.36 193.549 C 1496.858 198.894 1502.87 204.521 1508.362 210.397 C 1510.01 212.104 1511.491 213.888 1512.795 215.736 C 1514.085 217.647 1515.072 219.686 1516.863 221.378 C 1518.516 222.831 1520.542 224.054 1522.836 224.982 C 1528.621 227.491 1535.182 228.98 1541.961 229.322 L 1539.305 224.731 C 1532.761 224.328 1526.441 222.856 1520.847 220.433 Z " fill="rgb(0,0,0)"/></g><g opacity="0.1"><path d=" M 1481.799 171.881 C 1479.522 169.948 1476.554 168.48 1474.354 166.516 C 1474.156 166.334 1473.966 166.147 1473.777 165.95 C 1473.731 167.818 1474.645 169.636 1476.35 171.069 C 1478.551 173.039 1481.533 174.507 1483.795 176.44 C 1484.678 177.19 1485.441 178.006 1486.072 178.874 C 1485.602 176.308 1484.122 173.886 1481.799 171.881 L 1481.799 171.881 Z " fill="rgb(0,0,0)"/></g><path d=" M 1185.54 117.082 L 1180.038 113.19 C 1179.489 112.801 1178.741 112.582 1177.962 112.582 C 1177.182 112.582 1176.435 112.801 1175.886 113.19 L 1141.331 137.272 L 1126.713 126.915 C 1125.575 126.115 1123.73 126.115 1122.592 126.915 L 1117.029 130.786 C 1115.892 131.595 1115.892 132.897 1117.029 133.706 L 1139.228 149.438 C 1140.376 150.237 1142.225 150.237 1143.372 149.438 L 1185.54 120.002 C 1186.094 119.616 1186.405 119.09 1186.405 118.542 C 1186.405 117.994 1186.094 117.468 1185.54 117.082 L 1185.54 117.082 Z " fill="rgb(58,204,108)"/><path d=" M 1338.09 117.082 L 1332.588 113.19 C 1332.039 112.801 1331.292 112.582 1330.512 112.582 C 1329.732 112.582 1328.985 112.801 1328.436 113.19 L 1293.881 137.272 L 1279.264 126.915 C 1278.125 126.115 1276.281 126.115 1275.142 126.915 L 1269.579 130.786 C 1268.442 131.595 1268.442 132.897 1269.579 133.706 L 1291.779 149.438 C 1292.926 150.237 1294.775 150.237 1295.923 149.438 L 1338.09 120.002 C 1338.644 119.616 1338.956 119.09 1338.956 118.542 C 1338.956 117.994 1338.644 117.468 1338.09 117.082 L 1338.09 117.082 Z " fill="rgb(58,204,108)"/><g><path d=" M 986.225 257.001 C 1011.794 245.59 1043.097 241.065 1077.614 240.362 C 1061.031 187.88 1051.14 135.32 1048.907 82.683 L 957.518 99.321 C 960.26 152.69 969.982 206.09 986.225 257.001 L 986.225 257.001 Z " fill="rgb(242,242,242)"/><rect x="984.21" y="82.345" width="32.312" height="14.762" transform="matrix(-0.984,0.179,-0.179,-0.984,2000.626,-1.181)" fill="rgb(63,61,86)"/><rect x="980.619" y="132.623" width="57.274" height="10.799" transform="matrix(0.984,-0.179,0.179,0.984,-8.4,183.006)" fill="rgb(108,99,255)"/><rect x="984.637" y="154.69" width="57.274" height="10.799" transform="matrix(0.984,-0.179,0.179,0.984,-12.288,184.083)" fill="rgb(108,99,255)"/></g></g></g></svg>